# Blender 4.5.0
# www.blender.org
mtllib sugar_cherry.mtl
o Icosphere
v 0.624189 -0.523159 -0.309042
v 0.747068 -0.324336 -0.309043
v 0.685629 -0.201458 -0.498133
v 0.524779 -0.324337 -0.614997
v 0.637913 -0.394257 -0.463465
v 0.486807 -0.523159 -0.498134
v 0.723600 -0.447215 -0.032529
v 0.803726 -0.027680 -0.279129
v 0.513833 -0.027682 -0.678124
v 0.254549 -0.447215 -0.678126
v 0.384190 -0.706503 -0.279127
v -0.323322 -0.523159 -0.616913
v -0.101032 -0.523159 -0.689137
v -0.063062 -0.324336 -0.806001
v -0.261883 -0.201457 -0.806002
v -0.243657 -0.394257 -0.749909
v -0.422732 -0.324337 -0.689139
v -0.146745 -0.706503 -0.451641
v 0.192666 -0.447215 -0.698234
v -0.017106 -0.027678 -0.850640
v -0.486152 -0.027682 -0.698236
v -0.566279 -0.447215 -0.451643
v -0.686638 -0.523158 0.116863
v -0.686638 -0.523158 -0.116863
v -0.786049 -0.324336 -0.189088
v -0.847488 -0.201457 0.000000
v -0.788508 -0.394257 0.000000
v -0.786049 -0.324336 0.189088
v -0.474892 -0.706501 0.000000
v -0.604531 -0.447215 -0.398997
v -0.814299 -0.027680 -0.246591
v -0.814299 -0.027680 0.246591
v -0.604531 -0.447215 0.398997
v -0.101032 -0.523159 0.689137
v -0.323322 -0.523159 0.616913
v -0.422732 -0.324337 0.689139
v -0.261883 -0.201457 0.806002
v -0.243657 -0.394257 0.749909
v -0.063062 -0.324336 0.806001
v -0.146745 -0.706503 0.451641
v -0.566279 -0.447215 0.451643
v -0.486152 -0.027682 0.698236
v -0.017106 -0.027678 0.850640
v 0.192666 -0.447215 0.698234
v 0.486807 -0.523159 0.498134
v 0.524779 -0.324337 0.614997
v 0.685629 -0.201458 0.498133
v 0.747068 -0.324336 0.309043
v 0.637913 -0.394257 0.463465
v 0.624189 -0.523159 0.309042
v 0.254549 -0.447215 0.678126
v 0.513833 -0.027682 0.678124
v 0.803726 -0.027680 0.279129
v 0.723600 -0.447215 0.032529
v 0.384190 -0.706503 0.279127
v 0.570169 0.588368 -0.000000
v 0.387610 0.558160 -0.000000
v 0.746166 0.538844 -0.000000
v 0.176188 0.588368 -0.542259
v 0.230572 0.538843 -0.709640
v 0.119775 0.558159 -0.368637
v -0.461275 0.588368 -0.335132
v -0.603658 0.538844 -0.438578
v -0.313582 0.558159 -0.227828
v -0.461275 0.588368 0.335132
v -0.603657 0.538844 0.438578
v -0.313582 0.558159 0.227828
v 0.176188 0.588368 0.542259
v 0.119775 0.558159 0.368637
v 0.230572 0.538843 0.709640
v -0.206457 0.496911 0.149998
v -0.206457 0.496911 -0.149998
v 0.078858 0.496911 -0.242705
v 0.255195 0.496913 -0.000000
v 0.078858 0.496911 0.242705
v -0.078858 -0.842279 0.242705
v 0.206457 -0.842279 0.149998
v 0.206457 -0.842279 -0.149998
v -0.078858 -0.842279 -0.242705
v -0.255195 -0.842281 0.000000
v 0.894425 0.447215 -0.000000
v 0.276385 0.447215 -0.850640
v -0.723600 0.447215 -0.525720
v -0.723600 0.447215 0.525720
v 0.276385 0.447215 0.850640
v 0.000000 2.842073 0.316330
v 0.273950 2.842073 -0.158165
v -0.273950 2.842073 -0.158165
v 0.000000 -0.082991 0.000000
vn 0.9456 -0.0262 -0.3243
vn 0.8066 -0.0777 -0.5860
vn 0.6006 -0.0262 -0.7991
vn 0.2764 0.4472 -0.8507
vn 0.8944 0.4472 -0.0000
vn 0.5021 -0.3103 -0.8072
vn 0.2920 -0.5255 -0.7991
vn 0.2335 -0.5255 -0.8181
vn 0.0683 -0.3103 -0.9482
vn -0.0162 -0.0262 -0.9995
vn -0.3081 -0.0777 -0.9482
vn -0.5744 -0.0262 -0.8181
vn -0.7236 0.4472 -0.5257
vn 0.2969 -0.9302 -0.2157
vn -0.1134 -0.9302 -0.3491
vn -0.1705 -0.8341 -0.5247
vn -0.0036 -0.6867 -0.7270
vn 0.4302 -0.6867 -0.5860
vn 0.4463 -0.8341 -0.3243
vn -0.6126 -0.3103 -0.7270
vn -0.6698 -0.5255 -0.5247
vn -0.7059 -0.5255 -0.4749
vn -0.8807 -0.3103 -0.3580
vn -0.9556 -0.0262 -0.2935
vn -0.9970 -0.0777 -0.0000
vn -0.9556 -0.0262 0.2935
vn -0.7236 0.4472 0.5257
vn -0.3670 -0.9302 -0.0000
vn -0.5517 -0.8341 -0.0000
vn -0.6925 -0.6867 -0.2212
vn -0.4244 -0.6867 -0.5902
vn -0.8807 -0.3103 0.3580
vn -0.7059 -0.5255 0.4749
vn -0.6698 -0.5255 0.5247
vn -0.6126 -0.3103 0.7270
vn -0.5744 -0.0262 0.8181
vn -0.3081 -0.0777 0.9482
vn -0.0162 -0.0262 0.9995
vn 0.2764 0.4472 0.8507
vn -0.1134 -0.9302 0.3491
vn -0.1705 -0.8341 0.5247
vn -0.4244 -0.6867 0.5902
vn -0.6925 -0.6867 0.2212
vn 0.8502 -0.5255 0.0308
vn 0.6903 -0.6867 0.2280
vn 0.4463 -0.8341 0.3243
vn 0.2969 -0.9302 0.2157
vn 0.6903 -0.6867 -0.2280
vn 0.8502 -0.5255 -0.0308
vn 0.0683 -0.3103 0.9482
vn 0.2335 -0.5255 0.8181
vn 0.2920 -0.5255 0.7991
vn 0.5021 -0.3103 0.8072
vn 0.6006 -0.0262 0.7991
vn 0.8066 -0.0777 0.5860
vn 0.9456 -0.0262 0.3243
vn 0.9229 -0.3103 0.2280
vn 0.9229 -0.3103 -0.2280
vn 0.4302 -0.6867 0.5860
vn -0.0036 -0.6867 0.7270
vn 0.7236 -0.4472 -0.5257
vn -0.2764 -0.4472 -0.8507
vn -0.8944 -0.4472 -0.0000
vn -0.2764 -0.4472 0.8507
vn 0.7236 -0.4472 0.5257
vn -0.2440 0.9698 -0.0000
vn -0.0754 0.9698 0.2320
vn -0.0906 0.9561 0.2787
vn -0.2931 0.9561 -0.0000
vn 0.1379 0.8949 -0.4244
vn 0.4462 0.8949 -0.0000
vn 0.1974 0.9698 0.1434
vn 0.2371 0.9561 0.1723
vn -0.3610 0.8949 -0.2623
vn 0.1974 0.9698 -0.1434
vn 0.2371 0.9561 -0.1723
vn -0.3610 0.8949 0.2623
vn 0.1379 0.8949 0.4244
vn -0.0754 0.9698 -0.2320
vn -0.0906 0.9561 -0.2787
vn 0.0434 0.9901 -0.1334
vn 0.1403 0.9901 -0.0000
vn 0.0434 0.9901 0.1334
vn -0.1135 0.9901 -0.0825
vn -0.1135 0.9901 0.0825
vn -0.0000 0.5155 0.8569
vn -0.0000 -1.0000 -0.0000
vn 0.7421 0.5155 -0.4284
vn -0.7421 0.5155 -0.4284
vt 0.455029 0.291238
vt 0.409399 0.265181
vt 0.407907 0.204899
vt 0.404348 0.000103
vt 0.640753 0.342750
vt 0.377472 0.254501
vt 0.337024 0.249837
vt 0.328646 0.246153
vt 0.291679 0.220974
vt 0.301238 0.167877
vt 0.259372 0.205996
vt 0.197747 0.187959
vt 0.000103 0.119440
vt 0.317831 0.326336
vt 0.290220 0.316191
vt 0.280603 0.288671
vt 0.286921 0.252521
vt 0.360628 0.279943
vt 0.341090 0.310038
vt 0.238046 0.234672
vt 0.220349 0.273585
vt 0.214142 0.280836
vt 0.178205 0.312477
vt 0.120288 0.289262
vt 0.156503 0.342093
vt 0.132678 0.394645
vt 0.000103 0.542486
vt 0.271626 0.339736
vt 0.242457 0.341049
vt 0.208971 0.325090
vt 0.257914 0.259868
vt 0.180256 0.368451
vt 0.212542 0.394366
vt 0.217620 0.401941
vt 0.236344 0.443713
vt 0.198413 0.489778
vt 0.257237 0.472307
vt 0.298635 0.510002
vt 0.397225 0.680682
vt 0.288915 0.364348
vt 0.281295 0.392125
vt 0.256801 0.418959
vt 0.208888 0.355328
vt 0.393805 0.346269
vt 0.374607 0.378983
vt 0.340516 0.371700
vt 0.318003 0.355618
vt 0.376226 0.303692
vt 0.394971 0.337521
vt 0.288556 0.458166
vt 0.322129 0.435941
vt 0.330648 0.433495
vt 0.374808 0.428605
vt 0.406275 0.477437
vt 0.407328 0.417870
vt 0.453256 0.391717
vt 0.403805 0.384815
vt 0.405628 0.298220
vt 0.358043 0.402319
vt 0.284817 0.427774
vt 0.385793 0.280380
vt 0.266827 0.234914
vt 0.186681 0.340718
vt 0.264808 0.444086
vt 0.383649 0.402438
vt 0.881583 0.187397
vt 0.826458 0.263434
vt 0.816971 0.234257
vt 0.851737 0.187445
vt 0.999897 0.187271
vt 0.862891 0.375346
vt 0.850149 0.336179
vt 0.960034 0.187303
vt 0.737080 0.234438
vt 0.761122 0.216750
vt 0.640958 0.303817
vt 0.674158 0.280453
vt 0.736460 0.140736
vt 0.761292 0.158028
vt 0.640958 0.070522
vt 0.673341 0.095017
vt 0.862702 0.000103
vt 0.849615 0.038258
vt 0.826055 0.111509
vt 0.816606 0.140851
vt 0.838132 0.299277
vt 0.920270 0.187345
vt 0.837662 0.075442
vt 0.706012 0.257283
vt 0.705420 0.118244
vt 0.777256 0.984302
vt 0.777256 0.744302
vt 0.985102 0.624302
vt 0.774715 0.984302
vt 0.982561 0.624302
vt 0.566869 0.624302
vt 0.569410 0.624302
s 1
usemtl Material.001
f 8/1/1 3/2/2 9/3/3 82/4/4 81/5/5
f 9/3/3 4/6/6 10/7/7 19/8/8 14/9/9 20/10/10 82/4/4
f 20/10/10 15/11/11 21/12/12 83/13/13 82/4/4
f 78/14/14 79/15/15 18/16/16 13/17/17 19/8/8 10/7/7 6/18/18 11/19/19
f 21/12/12 17/20/20 22/21/21 30/22/22 25/23/23 31/24/24 83/13/13
f 31/24/24 26/25/25 32/26/26 84/27/27 83/13/13
f 79/15/15 80/28/28 29/29/29 24/30/30 30/22/22 22/21/21 12/31/31 18/16/16
f 32/26/26 28/32/32 33/33/33 41/34/34 36/35/35 42/36/36 84/27/27
f 42/36/36 37/37/37 43/38/38 85/39/39 84/27/27
f 80/28/28 76/40/40 40/41/41 35/42/42 41/34/34 33/33/33 23/43/43 29/29/29
f 54/44/44 50/45/45 55/46/46 77/47/47 78/14/14 11/19/19 1/48/48 7/49/49
f 43/38/38 39/50/50 44/51/51 51/52/52 46/53/53 52/54/54 85/39/39
f 52/54/54 47/55/55 53/56/56 81/5/5 85/39/39
f 53/56/56 48/57/57 54/44/44 7/49/49 2/58/58 8/1/1 81/5/5
f 76/40/40 77/47/47 55/46/46 45/59/59 51/52/52 44/51/51 34/60/60 40/41/41
f 7/49/49 1/48/48 5/61/61 2/58/58
f 8/1/1 2/58/58 5/61/61 3/2/2
f 9/3/3 3/2/2 5/61/61 4/6/6
f 10/7/7 4/6/6 5/61/61 6/18/18
f 11/19/19 6/18/18 5/61/61 1/48/48
f 18/16/16 12/31/31 16/62/62 13/17/17
f 19/8/8 13/17/17 16/62/62 14/9/9
f 20/10/10 14/9/9 16/62/62 15/11/11
f 21/12/12 15/11/11 16/62/62 17/20/20
f 22/21/21 17/20/20 16/62/62 12/31/31
f 29/29/29 23/43/43 27/63/63 24/30/30
f 30/22/22 24/30/30 27/63/63 25/23/23
f 31/24/24 25/23/23 27/63/63 26/25/25
f 32/26/26 26/25/25 27/63/63 28/32/32
f 33/33/33 28/32/32 27/63/63 23/43/43
f 40/41/41 34/60/60 38/64/64 35/42/42
f 41/34/34 35/42/42 38/64/64 36/35/35
f 42/36/36 36/35/35 38/64/64 37/37/37
f 43/38/38 37/37/37 38/64/64 39/50/50
f 44/51/51 39/50/50 38/64/64 34/60/60
f 51/52/52 45/59/59 49/65/65 46/53/53
f 52/54/54 46/53/53 49/65/65 47/55/55
f 53/56/56 47/55/55 49/65/65 48/57/57
f 54/44/44 48/57/57 49/65/65 50/45/45
f 55/46/46 50/45/45 49/65/65 45/59/59
f 57/66/66 61/67/67 73/68/68 74/69/69
f 81/70/5 82/71/4 60/72/70 58/73/71
f 61/67/67 64/74/72 72/75/73 73/68/68
f 82/71/4 83/76/13 63/77/74 60/72/70
f 64/74/72 67/78/75 71/79/76 72/75/73
f 83/76/13 84/80/27 66/81/77 63/77/74
f 85/82/39 81/70/5 58/73/71 70/83/78
f 69/84/79 57/66/66 74/69/69 75/85/80
f 84/80/27 85/82/39 70/83/78 66/81/77
f 67/78/75 69/84/79 75/85/80 71/79/76
f 59/86/81 56/87/82 58/73/71 60/72/70
f 61/67/67 57/66/66 56/87/82 59/86/81
f 56/87/82 68/88/83 70/83/78 58/73/71
f 57/66/66 69/84/79 68/88/83 56/87/82
f 62/89/84 59/86/81 60/72/70 63/77/74
f 64/74/72 61/67/67 59/86/81 62/89/84
f 65/90/85 62/89/84 63/77/74 66/81/77
f 67/78/75 64/74/72 62/89/84 65/90/85
f 68/88/83 65/90/85 66/81/77 70/83/78
f 69/84/79 67/78/75 65/90/85 68/88/83
f 75/85/80 74/69/69 73/68/68 72/75/73 71/79/76
f 80/28/28 79/15/15 78/14/14 77/47/47 76/40/40
f 86/91/86 89/92/87 87/93/88
f 86/94/86 87/95/88 88/96/89
f 87/93/88 89/92/87 88/97/89
f 88/97/89 89/92/87 86/91/86
