# Blender 4.5.0
# www.blender.org
mtllib support_beam.mtl
o Wood.001
v -0.137291 -1.371670 0.131460
v -0.137291 3.246085 0.131460
v -0.137291 -1.371669 -0.145239
v -0.137291 3.246086 -0.145239
v 0.139408 -1.371670 0.131460
v 0.139408 3.246085 0.131460
v 0.139408 -1.371669 -0.145239
v 0.139408 3.246086 -0.145239
v 0.061225 2.157098 -0.055453
v -0.109870 2.354166 -0.051998
v 0.816370 2.812636 -0.050319
v 0.645274 3.009701 -0.046862
v 0.061723 2.155714 0.048036
v -0.109374 2.352782 0.051491
v 0.816867 2.811252 0.053169
v 0.645772 3.008319 0.056626
v 0.056753 2.157098 0.094691
v 0.053299 2.354166 -0.076404
v 0.051620 2.812636 0.849836
v 0.048163 3.009701 0.678740
v -0.046736 2.155714 0.095189
v -0.050190 2.352782 -0.075908
v -0.051868 2.811252 0.850333
v -0.055325 3.008319 0.679238
vn -1.0000 -0.0000 -0.0000
vn -0.0000 -0.0000 -1.0000
vn 1.0000 -0.0000 -0.0000
vn -0.0000 -0.0000 1.0000
vn 0.7551 0.6555 0.0051
vn -0.0048 0.0134 -0.9999
vn 0.0048 -0.0134 0.9999
vn -0.7551 -0.6555 -0.0051
vn 0.6555 -0.7550 -0.0132
vn -0.6555 0.7550 0.0132
vn -0.0051 0.6555 0.7551
vn 0.9999 0.0134 -0.0048
vn -0.9999 -0.0134 0.0048
vn 0.0051 -0.6555 -0.7551
vn 0.0132 -0.7550 0.6555
vn -0.0132 0.7550 -0.6555
vt 0.375000 0.000000
vt 0.625000 0.000000
vt 0.625000 0.250000
vt 0.375000 0.250000
vt 0.625000 0.500000
vt 0.375000 0.500000
vt 0.625000 0.750000
vt 0.375000 0.750000
vt 0.625000 1.000000
vt 0.375000 1.000000
vt 0.125000 0.500000
vt 0.125000 0.750000
vt 0.875000 0.500000
vt 0.875000 0.750000
s 1
usemtl Wood.002
f 1/1/1 2/2/1 4/3/1 3/4/1
f 3/4/2 4/3/2 8/5/2 7/6/2
f 7/6/3 8/5/3 6/7/3 5/8/3
f 5/8/4 6/7/4 2/9/4 1/10/4
f 11/4/5 12/3/5 16/5/5 15/6/5
f 9/1/6 10/2/6 12/3/6 11/4/6
f 15/6/7 16/5/7 14/7/7 13/8/7
f 13/8/8 14/7/8 10/9/8 9/10/8
f 11/11/9 15/6/9 13/8/9 9/12/9
f 16/5/10 12/13/10 10/14/10 14/7/10
f 19/4/11 20/3/11 24/5/11 23/6/11
f 17/1/12 18/2/12 20/3/12 19/4/12
f 23/6/13 24/5/13 22/7/13 21/8/13
f 21/8/14 22/7/14 18/9/14 17/10/14
f 19/11/15 23/6/15 21/8/15 17/12/15
f 24/5/16 20/13/16 18/14/16 22/7/16
