# Blender 4.4.3
# www.blender.org
mtllib seed_plot.mtl
o Cube
v -0.601183 -0.096997 0.588849
v -0.601183 0.103003 0.588849
v -0.601183 -0.096997 0.528849
v -0.601183 0.103003 0.528849
v -0.541183 -0.096997 0.588849
v -0.541183 0.103003 0.588849
v -0.541183 -0.096997 0.528849
v -0.541183 0.103003 0.528849
v -0.601183 0.103003 -0.532417
v -0.601183 -0.096997 -0.532417
v -0.541183 -0.096997 -0.532417
v -0.541183 0.103003 -0.532417
v -0.601183 0.103003 -0.592417
v -0.601183 -0.096997 -0.592417
v -0.541183 -0.096997 -0.592417
v -0.541183 0.103003 -0.592417
v 0.544068 0.103003 -0.532417
v 0.544068 -0.096997 -0.532417
v 0.544068 0.103003 -0.592417
v 0.544068 -0.096997 -0.592417
v 0.604068 0.103003 -0.532417
v 0.604068 -0.096997 -0.532417
v 0.604068 0.103003 -0.592417
v 0.604068 -0.096997 -0.592417
v 0.539301 0.103003 0.527707
v 0.539301 -0.096997 0.527707
v 0.604068 0.103003 0.526565
v 0.604068 -0.096997 0.526565
v 0.602430 0.103003 0.588849
v 0.602430 -0.096997 0.588849
v 0.534535 -0.096997 0.588849
v 0.534535 0.103003 0.588849
v -0.601183 0.126694 0.588849
v -0.601183 0.126694 0.528849
v -0.541183 0.126694 0.528849
v -0.541183 0.126694 0.588849
v -0.601183 0.126694 -0.532417
v -0.541183 0.126694 -0.532417
v -0.601183 0.126694 -0.592417
v -0.541183 0.126694 -0.592417
v 0.544068 0.126694 -0.592417
v 0.544068 0.126694 -0.532417
v 0.604068 0.126694 -0.592417
v 0.604068 0.126694 -0.532417
v 0.539301 0.126694 0.527707
v 0.604068 0.126694 0.526565
v 0.602430 0.126694 0.588849
v 0.534535 0.126694 0.588849
vn -1.0000 -0.0000 -0.0000
vn -0.0000 -1.0000 -0.0000
vn -0.0000 -0.0000 1.0000
vn 1.0000 -0.0000 -0.0000
vn -0.0000 1.0000 -0.0000
vn -0.0000 -0.0000 -1.0000
vn 0.9997 -0.0000 0.0263
vn -1.0000 -0.0000 -0.0045
vn -0.0011 -0.0000 -1.0000
vn -0.0176 -0.0000 -0.9998
vn -0.9970 -0.0000 -0.0777
vt 0.375000 0.000000
vt 0.625000 0.000000
vt 0.625000 0.250000
vt 0.375000 0.250000
vt 0.375000 0.500000
vt 0.125000 0.500000
vt 0.625000 0.750000
vt 0.375000 0.750000
vt 0.625000 1.000000
vt 0.375000 1.000000
vt 0.125000 0.750000
vt 0.625000 0.500000
vt 0.875000 0.500000
vt 0.875000 0.750000
s 1
usemtl Material.001
f 1/1/1 2/2/1 4/3/1 3/4/1
f 7/5/2 3/6/2 10/6/2 11/5/2
f 6/7/3 5/8/3 31/8/3 32/7/3
f 5/8/3 6/7/3 2/9/3 1/10/3
f 3/6/2 7/5/2 5/8/2 1/11/2
f 6/7/4 8/12/4 35/12/4 36/7/4
f 12/12/3 11/5/3 18/5/3 17/12/3
f 4/13/5 8/12/5 12/12/5 9/13/5
f 3/4/1 4/3/1 9/3/1 10/4/1
f 8/12/4 7/5/4 11/5/4 12/12/4
f 14/4/6 13/3/6 16/12/6 15/5/6
f 11/5/2 10/6/2 14/6/2 15/5/2
f 29/7/7 27/12/7 46/12/7 47/7/7
f 10/4/1 9/3/1 13/3/1 14/4/1
f 16/12/6 13/3/6 39/3/6 40/12/6
f 11/5/2 15/5/2 20/5/2 18/5/2
f 16/12/5 12/12/5 17/12/5 19/12/5
f 15/5/6 16/12/6 19/12/6 20/5/6
f 21/12/4 22/5/4 24/5/4 23/12/4
f 20/5/6 19/12/6 23/12/6 24/5/6
f 18/5/2 20/5/2 24/5/2 22/5/2
f 21/12/5 17/12/5 25/12/5 27/12/5
f 28/5/7 27/12/7 29/7/7 30/8/7
f 22/5/4 21/12/4 27/12/4 28/5/4
f 18/5/2 22/5/2 28/5/2 26/5/2
f 17/12/8 18/5/8 26/5/8 25/12/8
f 32/7/3 31/8/3 30/8/3 29/7/3
f 5/8/2 7/5/2 26/5/2 31/8/2
f 8/12/5 6/7/5 32/7/5 25/12/5
f 7/5/9 8/12/9 25/12/9 26/5/9
f 9/13/3 12/12/3 38/12/3 37/13/3
f 28/5/2 30/8/2 31/8/2 26/5/2
f 35/12/5 34/13/5 33/14/5 36/7/5
f 37/13/5 38/12/5 40/12/5 39/13/5
f 41/12/5 42/12/5 44/12/5 43/12/5
f 45/12/5 48/7/5 47/7/5 46/12/5
f 32/7/3 29/7/3 47/7/3 48/7/3
f 19/12/1 17/12/1 42/12/1 41/12/1
f 27/12/10 25/12/10 45/12/10 46/12/10
f 25/12/11 32/7/11 48/7/11 45/12/11
f 4/3/1 2/2/1 33/2/1 34/3/1
f 21/12/4 23/12/4 43/12/4 44/12/4
f 12/12/4 16/12/4 40/12/4 38/12/4
f 17/12/3 21/12/3 44/12/3 42/12/3
f 2/9/3 6/7/3 36/7/3 33/9/3
f 23/12/6 19/12/6 41/12/6 43/12/6
f 13/3/1 9/3/1 37/3/1 39/3/1
f 8/12/6 4/13/6 34/13/6 35/12/6
o DirtPatch
v 0.170543 -0.052894 -0.021934
v -0.414002 0.097308 0.403925
v -0.421546 0.075193 -0.509960
v 0.102102 0.082679 -0.492057
v 0.509062 0.092658 -0.040731
v -0.034213 0.116003 0.071251
v -0.139799 -0.082387 0.375302
v 0.272342 -0.044675 -0.015785
v -0.262436 -0.040667 -0.051047
v 0.066776 -0.039068 -0.345711
v 0.495152 0.093972 0.200227
v -0.444003 0.101393 0.000299
v 0.402578 0.091902 -0.301323
v 0.274727 0.091136 0.391053
v 0.194122 0.108591 0.010954
v -0.117938 0.100067 0.219018
v -0.214407 0.108525 -0.168182
v -0.059264 0.103282 -0.384820
v 0.540620 -0.047766 0.234568
v 0.540673 -0.047275 0.222680
v -0.541183 -0.028050 -0.427339
v -0.541183 -0.000724 -0.532417
v -0.357170 -0.018044 -0.532417
v 0.385509 0.054401 0.527869
v 0.360914 0.057572 0.527895
v -0.281334 0.072689 0.528574
v -0.296353 0.073715 0.528590
v 0.029510 0.083371 -0.532417
v -0.082118 0.090441 -0.532417
v -0.111769 0.088304 -0.532417
v -0.339807 0.077514 -0.532417
v -0.247766 0.073128 0.528538
v 0.542020 0.082166 -0.076865
v 0.542901 0.063969 -0.272893
v 0.543730 0.055431 -0.457155
v 0.488448 0.047056 -0.532417
v 0.544068 0.042893 -0.532417
v 0.078721 0.074159 -0.532417
v -0.458801 0.064394 -0.532417
v -0.541183 0.080133 -0.163226
v -0.541183 0.063432 -0.457427
v -0.541183 0.076474 0.135567
v -0.541183 0.070006 0.380162
v -0.469900 0.064728 0.528773
v 0.539301 0.026250 0.527707
v 0.540030 0.055602 0.365783
v 0.540932 0.086789 0.164993
v 0.541735 0.087334 -0.013463
v -0.541183 0.049645 -0.532417
v -0.541183 0.047388 0.528849
v 0.514314 -0.037836 0.527733
v 0.539301 -0.022935 0.527707
v 0.539539 -0.030109 0.474783
v 0.483318 -0.027725 -0.532417
v 0.542921 -0.022504 -0.277326
v 0.544068 -0.022683 -0.532417
v 0.358356 -0.029640 -0.532417
v -0.059140 -0.019332 -0.532417
v -0.541183 -0.028333 -0.424584
v -0.541183 -0.028437 -0.419891
v -0.541183 -0.013729 -0.018591
v -0.541183 -0.024538 0.377043
v -0.541183 -0.030317 0.479652
v -0.541183 -0.035372 0.528849
v -0.320121 -0.069930 0.528615
v 0.541621 -0.027233 0.011902
v 0.540686 -0.046951 0.219724
v 0.266474 -0.060641 0.527995
v 0.540328 -0.047487 0.299418
v 0.492991 -0.048904 0.527756
vn 0.0423 -0.9983 -0.0411
vn -0.0220 -0.9956 -0.0911
vn -0.0259 -0.9991 -0.0344
vn 0.0822 -0.9936 -0.0776
vn 0.0844 -0.9940 -0.0695
vn 0.0883 -0.9912 -0.0982
vn -0.0907 -0.9638 -0.2506
vn 0.1264 0.9789 0.1605
vn 0.0678 0.9900 0.1234
vn -0.0708 0.9960 -0.0543
vn 0.0629 0.9934 -0.0962
vn 0.0496 0.9986 -0.0194
vn 0.0469 0.9987 -0.0221
vn 0.0488 0.9988 -0.0057
vn 0.0304 0.9990 -0.0324
vn 0.0257 0.9992 -0.0297
vn 0.0247 0.9993 -0.0292
vn 0.0306 0.9990 -0.0330
vn 0.0463 0.9916 -0.1209
vn -0.0048 0.9996 -0.0276
vn -0.0717 0.9946 -0.0754
vn -0.0471 0.9965 -0.0686
vn -0.1047 0.9934 0.0478
vn -0.0127 0.9996 0.0250
vn -0.0029 0.9999 0.0103
vn -0.0195 0.9952 0.0963
vn -0.0130 0.9966 0.0813
vn 0.0251 0.9745 0.2232
vn 0.0422 0.9984 0.0369
vn 0.0227 0.9989 0.0411
vn 0.0501 0.9987 -0.0026
vn 0.2118 0.9732 -0.0894
vn 0.2083 0.9756 -0.0695
vn 0.2078 0.9759 -0.0667
vn 0.2037 0.9780 -0.0444
vn 0.0736 0.9838 -0.1636
vn 0.1755 0.9378 -0.2997
vn -0.1051 0.9531 -0.2840
vn -0.1221 0.9909 -0.0563
vn -0.2328 0.9725 0.0119
vn -0.2144 0.9764 0.0258
vn -0.0501 0.9716 0.2311
vn 0.1774 0.9682 0.1763
vn 0.2643 0.9528 0.1492
vn 0.1578 0.9875 0.0037
vn 0.0640 0.9683 -0.2415
vn -0.1734 0.9686 -0.1781
vn -0.2337 0.9613 0.1462
vn 0.5087 -0.8528 0.1179
vn 0.2236 0.9715 -0.0782
vn 0.0827 -0.9966 0.0011
vn 0.0153 -0.9995 -0.0265
vn -0.0246 -0.9958 -0.0887
vn -0.0043 -0.9947 -0.1023
vn -0.0148 -0.9996 -0.0220
vn -0.0919 -0.9951 0.0365
vn -0.0993 -0.9947 -0.0272
vn -0.1427 -0.9882 -0.0557
vn -0.1538 -0.9829 -0.1010
vn 0.0663 -0.9977 -0.0160
vn 0.0740 -0.9928 -0.0939
vn 0.0865 -0.9904 -0.1081
vn 0.0159 -0.9949 0.0995
vn 0.0518 -0.9986 0.0045
vn 0.4589 -0.8839 0.0897
vn -0.0000 -0.0000 -1.0000
vn -1.0000 -0.0000 -0.0000
vn 1.0000 -0.0000 0.0045
vn 0.0011 -0.0000 1.0000
vt 0.369853 0.144682
vt 0.655817 0.518986
vt 0.996871 0.288494
vt 0.996822 0.277292
vt 0.256850 0.546419
vt 0.560200 0.824072
vt 0.749619 0.513192
vt 0.000000 0.900988
vt 0.000000 1.000000
vt 0.169557 1.000000
vt 0.954926 0.309651
vt 0.751816 0.129840
vt 0.831233 0.000898
vt 0.853896 0.000923
vt 0.389997 0.291945
vt 0.117190 0.117712
vt 0.225598 0.000244
vt 0.239437 0.000259
vt 0.110238 0.978839
vt 0.089545 0.498037
vt 0.301106 0.656792
vt 0.525863 1.000000
vt 0.423003 1.000000
vt 0.444062 0.860924
vt 0.592752 0.961970
vt 0.967744 0.536698
vt 0.869625 0.782247
vt 0.677544 0.487997
vt 0.467145 0.431181
vt 0.395681 1.000000
vt 0.185557 1.000000
vt 0.270368 0.000292
vt 0.998112 0.570747
vt 0.998924 0.755458
vt 0.999688 0.929082
vt 1.000000 1.000000
vt 0.948748 1.000000
vt 0.571208 1.000000
vt 0.075911 1.000000
vt 0.000000 0.929338
vt 0.000000 0.652121
vt 0.000000 0.370578
vt 0.000000 0.140103
vt 0.065683 0.000071
vt 0.995608 0.001076
vt 0.996278 0.153652
vt 0.997110 0.342851
vt 0.997850 0.511004
vt 0.000000 0.000000
vt 0.972583 0.001051
vt 0.995827 0.050945
vt 0.944022 1.000000
vt 0.998943 0.759635
vt 0.828876 1.000000
vt 0.444176 1.000000
vt 0.000000 0.898392
vt 0.000000 0.893970
vt 0.000000 0.515837
vt 0.000000 0.143042
vt 0.000000 0.046356
vt 0.203697 0.000220
vt 0.997745 0.487104
vt 0.996884 0.291279
vt 0.744212 0.000804
vt 0.996553 0.216186
vt 0.952935 0.001030
s 1
usemtl Material.002
f 55/15/12 49/16/12 68/17/12 67/18/12
f 49/16/13 55/15/13 57/19/13
f 49/16/14 57/19/14 58/20/14
f 49/16/15 58/20/16 56/21/17
f 69/22/18 70/23/18 71/24/18
f 59/25/19 62/26/19 73/27/19 72/28/19
f 64/29/20 50/30/20 75/31/20 74/32/20
f 51/33/21 60/34/21 65/35/21
f 76/36/22 77/37/22 66/38/22 52/39/22
f 53/40/23 61/41/24 63/42/25
f 63/42/26 66/38/27 54/43/28
f 63/42/26 61/41/29 66/38/27
f 61/41/30 52/39/30 66/38/30
f 66/38/31 65/35/31 54/43/31
f 65/35/32 66/38/32 77/37/32 78/44/32
f 51/33/33 65/35/33 78/44/33 79/45/33
f 65/35/34 64/29/34 54/43/34
f 65/35/35 60/34/35 64/29/35
f 60/34/36 50/30/36 64/29/36
f 64/29/37 62/26/37 54/43/37
f 80/46/38 62/26/38 64/29/38 74/32/38
f 73/27/39 62/26/39 80/46/39
f 62/26/40 63/42/40 54/43/40
f 62/26/41 59/25/41 63/42/41
f 59/25/42 53/40/23 63/42/25
f 81/47/43 82/48/44 61/41/45 53/40/43
f 83/49/46 61/41/45 82/48/44
f 61/41/47 83/49/47 85/50/47 84/51/47 52/39/47
f 86/52/48 76/36/48 52/39/48
f 87/53/49 51/33/49 79/45/49
f 51/33/50 89/54/50 88/55/50 60/34/50
f 60/34/51 88/55/51 90/56/51
f 91/57/52 50/30/52 60/34/52 90/56/52
f 50/30/53 92/58/53 75/31/53
f 72/28/54 93/59/54 94/60/54 59/25/54
f 94/60/55 95/61/55 59/25/55
f 95/61/56 96/62/56 53/40/56 59/25/56
f 52/39/57 84/51/57 86/52/57
f 89/54/58 51/33/58 87/53/58 97/23/58
f 50/30/59 91/57/59 98/63/59 92/58/59
f 100/59/60 99/64/60 101/65/60
f 96/62/61 81/47/61 53/40/61
f 56/21/62 102/66/62 104/50/62 103/67/62
f 56/21/63 58/20/63 105/68/63 102/66/63
f 58/20/64 106/69/64 105/68/64
f 71/24/65 106/69/65 58/20/65 107/70/65 69/22/65
f 58/20/66 57/19/66 108/71/66 107/70/66
f 108/71/67 57/19/67 109/72/67
f 57/19/68 110/73/68 109/72/68
f 57/19/69 55/15/69 111/74/69 110/73/69
f 112/63/70 111/74/70 55/15/70 113/75/70
f 114/76/71 56/21/71 103/67/71
f 115/77/72 56/21/72 114/76/72
f 49/16/15 56/21/17 115/77/73 68/17/73
f 113/75/74 55/15/74 116/78/74
f 117/79/75 118/80/75 116/78/75 55/15/75 67/18/75
f 117/79/76 101/65/76 99/64/76 118/80/76
f 79/45/77 78/44/77 77/37/77 76/36/77 86/52/77 84/51/77 85/50/77 104/50/77 102/66/77 105/68/77 106/69/77 71/24/77 70/23/77 97/23/77 87/53/77
f 112/63/78 98/63/78 91/57/78 90/56/78 88/55/78 89/54/78 97/23/78 70/23/78 69/22/78 107/70/78 108/71/78 109/72/78 110/73/78 111/74/78
f 115/77/79 114/76/79 103/67/79 104/50/79 85/50/79 83/49/79 82/48/79 81/47/79 96/62/79 95/61/79 94/60/79 93/59/79 100/59/79 101/65/79 117/79/79 67/18/79 68/17/79
f 100/59/80 93/59/80 72/28/80 73/27/80 80/46/80 74/32/80 75/31/80 92/58/80 98/63/80 112/63/80 113/75/80 116/78/80 118/80/80 99/64/80
