# Blender 4.5.0
# www.blender.org
mtllib stairs.mtl
o Railing
v -0.228086 2.806690 0.814167
v -0.228086 2.429659 0.814167
v -0.228086 2.806690 -0.883006
v -0.228086 2.429659 -0.883006
v -0.228086 1.162274 -3.704831
v -0.228086 0.785242 -3.704830
v -0.228086 2.806690 0.814167
v -0.228086 2.429659 0.814167
v -0.228086 2.806690 -0.883006
v -0.228086 2.429659 -0.883006
v -0.228086 1.162273 -3.704831
v -0.228086 0.785242 -3.704830
vn 1.0000 -0.0000 -0.0000
vn -1.0000 -0.0000 -0.0000
vt 0.000000 0.000000
vt 1.000000 0.000000
vt 1.000000 1.000000
vt 0.000000 1.000000
s 1
usemtl Rail.002
f 1/1/1 2/2/1 4/3/1 3/4/1
f 3/4/1 4/3/1 6/3/1 5/4/1
f 7/1/2 9/4/2 10/3/2 8/2/2
f 9/4/2 11/4/2 12/3/2 10/3/2
o Wood
v -1.251490 1.598343 0.935215
v -1.251490 1.856665 0.935215
v -1.251490 1.598343 0.676892
v -1.251490 1.856665 0.676892
v 0.784928 1.598343 0.935215
v 0.784928 1.856665 0.935215
v 0.784928 1.598343 0.676892
v 0.784928 1.856665 0.676892
v 1.068031 1.856665 0.676892
v 1.068031 1.598343 0.676892
v 1.068031 1.598343 0.935215
v 1.068031 1.856665 0.935215
v 0.784928 -1.125012 0.935215
v 0.784928 -1.125012 0.676892
v 1.068031 -1.125012 0.935215
v 1.068031 -1.125012 0.676892
v 0.784928 1.856665 -1.040699
v 0.784928 1.598343 -1.040699
v 1.068031 1.856665 -1.040699
v 1.068031 1.598343 -1.040699
v 0.784928 0.154308 -3.561282
v 0.784928 -0.104014 -3.561282
v 1.068031 0.154308 -3.561282
v 1.068031 -0.104014 -3.561282
v 0.784928 1.598343 -0.773087
v 1.068031 1.598343 -0.773087
v 1.068031 1.856665 -0.773087
v 0.784928 1.856665 -0.773087
v 0.784928 -1.403626 -1.040699
v 1.068031 -1.403626 -1.040699
v 0.784928 -1.403626 -0.773087
v 1.068031 -1.403626 -0.773087
v 0.804748 2.865001 0.696712
v 0.784928 2.845181 0.676888
v 0.784928 2.845181 0.935214
v 0.804748 2.865001 0.915391
v 1.068031 2.845181 0.676888
v 1.048211 2.865001 0.696712
v 1.048211 2.865001 0.915391
v 1.068031 2.845181 0.935214
v 1.048211 2.872944 -1.020879
v 1.068031 2.853124 -1.040699
v 0.784928 2.853124 -1.040699
v 0.804748 2.872944 -1.020879
v 1.048211 2.872944 -0.792907
v 1.068031 2.853124 -0.773087
v 0.784928 2.853124 -0.773087
v 0.804748 2.872944 -0.792907
v -3.730665 1.950316 0.525821
v -3.730665 2.035872 0.525821
v -3.754559 1.950316 0.230630
v -3.754559 2.035872 0.230630
v -1.681676 1.950316 0.359969
v -1.681676 2.035872 0.359969
v -1.705570 1.950316 0.064778
v -1.705570 2.035872 0.064778
v -3.755549 1.950316 -0.625787
v -3.851528 2.035872 -0.625787
v -3.722031 1.950316 -0.920039
v -3.818010 2.035872 -0.920039
v -1.355632 1.950316 -0.352416
v -1.451612 2.035872 -0.352416
v -1.322115 1.950316 -0.646669
v -1.418094 2.035872 -0.646669
v -3.891075 1.950316 -0.060476
v -3.891075 2.035872 -0.060476
v -3.881262 1.950316 -0.356469
v -3.881262 2.035872 -0.356469
v -1.476966 1.950316 0.019558
v -1.476966 2.035872 0.019558
v -1.467153 1.950316 -0.276435
v -1.467153 2.035872 -0.276435
v -3.747380 1.950316 -0.958941
v -3.747380 2.035872 -0.958941
v -3.745679 1.950316 -1.255092
v -3.745679 2.035872 -1.255092
v -1.331985 1.950316 -0.945062
v -1.331985 2.035872 -0.945062
v -1.330283 1.950316 -1.241213
v -1.330283 2.035872 -1.241213
v -1.221255 -0.040405 -3.375921
v -1.221255 0.025236 -3.375921
v -1.221255 -0.040405 -3.668321
v -1.221255 0.025236 -3.668321
v 0.867087 -0.040405 -3.375921
v 0.867087 0.025236 -3.375921
v 0.867087 -0.040405 -3.668321
v 0.867087 0.025236 -3.668321
v -1.221255 0.156519 -3.083522
v -1.221255 0.222160 -3.083522
v -1.221255 0.156518 -3.375921
v -1.221255 0.222160 -3.375921
v 0.867087 0.156519 -3.083522
v 0.867087 0.222160 -3.083522
v 0.867087 0.156518 -3.375921
v 0.867087 0.222160 -3.375921
v -1.221255 0.353443 -2.791122
v -1.221255 0.419084 -2.791122
v -1.221255 0.353443 -3.083522
v -1.221255 0.419084 -3.083522
v 0.867087 0.353443 -2.791122
v 0.867087 0.419084 -2.791122
v 0.867087 0.353443 -3.083522
v 0.867087 0.419084 -3.083522
v -1.221255 0.550366 -2.498722
v -1.221255 0.616008 -2.498722
v -1.221255 0.550366 -2.791122
v -1.221255 0.616008 -2.791122
v 0.867087 0.550366 -2.498722
v 0.867087 0.616008 -2.498722
v 0.867087 0.550366 -2.791122
v 0.867087 0.616008 -2.791122
v -1.221255 0.747290 -2.206322
v -1.221255 0.812931 -2.206322
v -1.221255 0.747290 -2.498722
v -1.221255 0.812931 -2.498722
v 0.867087 0.747290 -2.206322
v 0.867087 0.812931 -2.206322
v 0.867087 0.747290 -2.498722
v 0.867087 0.812931 -2.498722
v -1.221255 0.944214 -1.913922
v -1.221255 1.009855 -1.913922
v -1.221255 0.944214 -2.206322
v -1.221255 1.009855 -2.206322
v 0.867087 0.944214 -1.913922
v 0.867087 1.009855 -1.913922
v 0.867087 0.944214 -2.206322
v 0.867087 1.009855 -2.206322
v -1.221255 1.141137 -1.621522
v -1.221255 1.206779 -1.621522
v -1.221255 1.141137 -1.913922
v -1.221255 1.206779 -1.913922
v 0.867087 1.141137 -1.621522
v 0.867087 1.206779 -1.621522
v 0.867087 1.141137 -1.913922
v 0.867087 1.206779 -1.913922
v -1.221255 1.338061 -1.329122
v -1.221255 1.403703 -1.329122
v -1.221255 1.338061 -1.621522
v -1.221255 1.403703 -1.621522
v 0.867087 1.338061 -1.329122
v 0.867087 1.403703 -1.329122
v 0.867087 1.338061 -1.621522
v 0.867087 1.403703 -1.621522
v -1.221255 1.534985 -1.036722
v -1.221255 1.600626 -1.036722
v -1.221255 1.534985 -1.329122
v -1.221255 1.600626 -1.329122
v 0.867087 1.534985 -1.036722
v 0.867087 1.600626 -1.036722
v 0.867087 1.534985 -1.329122
v 0.867087 1.600626 -1.329122
v -1.221255 1.731909 -0.744322
v -1.221255 1.797550 -0.744322
v -1.221255 1.731909 -1.036722
v -1.221255 1.797550 -1.036722
v 0.867087 1.731909 -0.744322
v 0.867087 1.797550 -0.744322
v 0.867087 1.731909 -1.036722
v 0.867087 1.797550 -1.036722
v -0.763213 1.849783 0.997555
v -0.763213 1.915426 0.997555
v -1.055614 1.849783 0.997555
v -1.055614 1.915426 0.997555
v -0.763213 1.849783 -0.930859
v -0.763213 1.915425 -0.930859
v -1.055614 1.849783 -0.930859
v -1.055614 1.915425 -0.930859
v -0.397714 1.849783 0.997555
v -0.411017 1.915426 0.999478
v -0.690114 1.849783 0.997555
v -0.703389 1.915426 0.995448
v -0.397714 1.849783 -0.930859
v -0.384438 1.915425 -0.928752
v -0.690114 1.849783 -0.930859
v -0.676810 1.915425 -0.932782
v -0.032214 1.849783 0.997555
v -0.026512 1.915426 0.996673
v -0.324614 1.849783 0.997555
v -0.318906 1.915426 0.998403
v -0.032214 1.849783 -0.930859
v -0.037921 1.915425 -0.931707
v -0.324614 1.849783 -0.930859
v -0.330315 1.915425 -0.929977
v 0.333286 1.849783 0.997555
v 0.333286 1.915426 0.997555
v 0.040887 1.849783 0.997555
v 0.040887 1.915426 0.997555
v 0.333286 1.849783 -0.930859
v 0.333286 1.915425 -0.930859
v 0.040887 1.849783 -0.930859
v 0.040887 1.915425 -0.930859
v 0.698786 1.849783 0.997555
v 0.713448 1.915426 0.995218
v 0.406387 1.849783 0.997555
v 0.421082 1.915426 0.999669
v 0.698786 1.849783 -0.930859
v 0.684092 1.915425 -0.932973
v 0.406387 1.849783 -0.930859
v 0.391726 1.915425 -0.928522
v 0.844650 1.630913 -0.114557
v 0.878570 1.818084 -0.293267
v 0.810699 0.943966 -0.840471
v 0.844620 1.131137 -1.019181
v 0.947211 1.618742 -0.107836
v 0.981132 1.805914 -0.286547
v 0.913260 0.931796 -0.833751
v 0.947181 1.118967 -1.012461
v 0.844650 0.984185 0.764617
v 0.878570 1.180645 0.933065
v 0.810699 1.638098 0.008809
v 0.844620 1.834555 0.177257
v 0.947211 0.976286 0.753176
v 0.981132 1.172745 0.921624
v 0.913260 1.630199 -0.002632
v 0.947181 1.826657 0.165816
v 0.784928 0.154308 -3.836103
v 0.784928 -0.104014 -3.836103
v 1.068031 0.154308 -3.836103
v 1.068031 -0.104014 -3.836103
v 1.068031 1.385636 -3.561282
v 1.052970 1.400696 -3.576343
v 0.799989 1.400696 -3.576343
v 0.784928 1.385636 -3.561282
v 1.052970 1.400696 -3.821042
v 1.068031 1.385636 -3.836103
v 0.784928 1.385636 -3.836103
v 0.799989 1.400696 -3.821042
vn -1.0000 -0.0000 -0.0000
vn -0.0000 -0.0000 -1.0000
vn -0.0000 -0.0000 1.0000
vn -0.0000 -1.0000 -0.0000
vn -0.0000 1.0000 -0.0000
vn 1.0000 -0.0000 -0.0000
vn -0.0000 -0.8287 0.5597
vn -0.0000 0.8287 -0.5597
vn -0.7071 0.7071 -0.0000
vn 0.7071 0.7071 -0.0000
vn -0.0000 0.7071 0.7071
vn -0.0000 0.7072 -0.7070
vn -0.0000 0.7071 -0.7071
vn -0.9967 -0.0000 0.0807
vn -0.0807 -0.0000 -0.9967
vn 0.9967 -0.0000 -0.0807
vn 0.0807 -0.0000 0.9967
vn -0.6635 -0.7443 -0.0756
vn 0.1123 0.1260 -0.9857
vn 0.6635 0.7443 0.0756
vn -0.1123 -0.1260 0.9857
vn -0.9995 -0.0000 -0.0331
vn 0.0331 -0.0000 -0.9995
vn 0.9995 -0.0000 0.0331
vn -0.0331 -0.0000 0.9995
vn -1.0000 -0.0000 -0.0057
vn 0.0057 -0.0000 -1.0000
vn 1.0000 -0.0000 0.0057
vn -0.0057 -0.0000 1.0000
vn -0.0069 -0.0000 1.0000
vn -1.0000 -0.0000 -0.0069
vn 0.0069 -0.0000 -1.0000
vn 1.0000 -0.0000 0.0069
vn 0.0030 -0.0000 1.0000
vn -1.0000 -0.0000 0.0030
vn -0.0030 -0.0000 -1.0000
vn 1.0000 -0.0000 -0.0030
vn 0.0076 -0.0000 1.0000
vn -1.0000 -0.0000 0.0076
vn -0.0076 -0.0000 -1.0000
vn 1.0000 -0.0000 -0.0076
vn -0.9909 0.1176 -0.0649
vn -0.0340 -0.6869 -0.7259
vn 0.9909 -0.1176 0.0649
vn 0.0340 0.6869 0.7259
vn -0.1300 -0.7171 0.6847
vn 0.1300 0.7171 -0.6847
vn -0.9909 0.0763 0.1105
vn -0.0340 0.6539 -0.7558
vn 0.9909 -0.0763 -0.1105
vn 0.0339 -0.6539 0.7558
vn -0.1300 -0.7527 -0.6454
vn 0.1300 0.7527 0.6454
vt 0.375000 0.000000
vt 0.625000 0.000000
vt 0.625000 0.250000
vt 0.375000 0.250000
vt 0.625000 0.500000
vt 0.375000 0.500000
vt 0.375000 0.750000
vt 0.625000 0.750000
vt 0.625000 1.000000
vt 0.375000 1.000000
vt 0.125000 0.500000
vt 0.125000 0.750000
vt 0.875000 0.500000
vt 0.875000 0.750000
vt 0.625000 0.519182
vt 0.625000 0.730818
s 1
usemtl Wood.002
f 13/5/3 14/6/3 16/7/3 15/8/3
f 15/8/4 16/7/4 20/9/4 19/10/4
f 17/11/3 19/10/3 26/10/3 25/11/3
f 17/11/5 18/12/5 14/13/5 13/14/5
f 15/15/6 19/10/6 17/11/6 13/16/6
f 20/9/7 16/17/7 14/18/7 18/12/7
f 22/10/8 21/9/8 24/12/8 23/11/8
f 24/12/8 21/9/8 49/9/8 52/12/8
f 37/10/3 30/10/3 41/10/3 43/10/3
f 18/12/5 17/11/5 23/11/5 24/12/5
f 21/9/4 20/9/4 46/9/4 49/9/4
f 31/9/4 29/9/4 55/9/4 54/9/4
f 45/19/7 48/20/7 51/20/7 50/19/7
f 18/12/5 24/12/5 52/12/5 47/12/5
f 25/11/6 26/10/6 28/10/6 27/11/6
f 19/10/4 22/10/4 28/10/4 26/10/4
f 23/11/5 17/11/5 25/11/5 27/11/5
f 22/10/8 23/11/8 27/11/8 28/10/8
f 32/10/9 30/10/9 34/10/9 36/10/9
f 39/9/8 38/10/8 32/10/8 31/9/8
f 29/9/3 40/9/3 59/9/3 55/9/3
f 37/10/3 40/9/3 29/9/3 30/10/3
f 229/9/3 33/9/3 236/9/3 239/9/3
f 30/10/3 29/9/3 33/9/3 34/10/3
f 29/9/10 31/9/10 35/9/10 33/9/10
f 31/9/8 32/10/8 36/10/8 35/9/8
f 19/10/3 20/9/3 40/9/3 37/10/3
f 20/9/7 21/9/7 39/9/7 40/9/7
f 21/9/8 22/10/8 38/10/8 39/9/8
f 22/10/6 19/10/6 37/10/6 38/10/6
f 44/10/6 43/10/6 41/10/6 42/10/6
f 30/10/4 32/10/4 42/10/4 41/10/4
f 38/10/5 37/10/5 43/10/5 44/10/5
f 32/10/8 38/10/8 44/10/8 42/10/8
f 39/9/8 31/9/8 54/9/8 58/9/8
f 60/9/7 57/9/7 53/9/7 56/9/7
f 40/9/5 39/9/5 58/9/5 59/9/5
f 46/9/11 47/12/11 48/20/11 45/19/11
f 50/19/12 51/20/12 52/12/12 49/9/12
f 47/12/13 52/12/13 51/20/13 48/20/13
f 49/9/14 46/9/14 45/19/14 50/19/14
f 54/9/15 55/9/15 56/9/15 53/9/15
f 53/9/12 57/9/12 58/9/12 54/9/12
f 55/9/11 59/9/11 60/9/11 56/9/11
f 57/9/13 60/9/13 59/9/13 58/9/13
f 20/9/3 18/12/3 47/12/3 46/9/3
f 61/5/16 62/6/16 64/7/16 63/8/16
f 63/8/17 64/7/17 68/9/17 67/10/17
f 67/10/18 68/9/18 66/12/18 65/11/18
f 65/11/19 66/12/19 62/13/19 61/14/19
f 68/9/7 64/17/7 62/18/7 66/12/7
f 69/5/20 70/6/20 72/7/20 71/8/20
f 71/8/21 72/7/21 76/9/21 75/10/21
f 75/10/22 76/9/22 74/12/22 73/11/22
f 73/11/23 74/12/23 70/13/23 69/14/23
f 76/9/7 72/17/7 70/18/7 74/12/7
f 77/5/24 78/6/24 80/7/24 79/8/24
f 79/8/25 80/7/25 84/9/25 83/10/25
f 83/10/26 84/9/26 82/12/26 81/11/26
f 81/11/27 82/12/27 78/13/27 77/14/27
f 84/9/7 80/17/7 78/18/7 82/12/7
f 85/5/28 86/6/28 88/7/28 87/8/28
f 87/8/29 88/7/29 92/9/29 91/10/29
f 91/10/30 92/9/30 90/12/30 89/11/30
f 89/11/31 90/12/31 86/13/31 85/14/31
f 92/9/7 88/17/7 86/18/7 90/12/7
f 93/5/3 94/6/3 96/7/3 95/8/3
f 95/8/4 96/7/4 100/9/4 99/10/4
f 99/10/8 100/9/8 98/12/8 97/11/8
f 97/11/5 98/12/5 94/13/5 93/14/5
f 95/15/6 99/10/6 97/11/6 93/16/6
f 100/9/7 96/17/7 94/18/7 98/12/7
f 101/5/3 102/6/3 104/7/3 103/8/3
f 103/8/4 104/7/4 108/9/4 107/10/4
f 107/10/8 108/9/8 106/12/8 105/11/8
f 105/11/5 106/12/5 102/13/5 101/14/5
f 103/15/6 107/10/6 105/11/6 101/16/6
f 108/9/7 104/17/7 102/18/7 106/12/7
f 109/5/3 110/6/3 112/7/3 111/8/3
f 111/8/4 112/7/4 116/9/4 115/10/4
f 115/10/8 116/9/8 114/12/8 113/11/8
f 113/11/5 114/12/5 110/13/5 109/14/5
f 111/15/6 115/10/6 113/11/6 109/16/6
f 116/9/7 112/17/7 110/18/7 114/12/7
f 117/5/3 118/6/3 120/7/3 119/8/3
f 119/8/4 120/7/4 124/9/4 123/10/4
f 123/10/8 124/9/8 122/12/8 121/11/8
f 121/11/5 122/12/5 118/13/5 117/14/5
f 119/15/6 123/10/6 121/11/6 117/16/6
f 124/9/7 120/17/7 118/18/7 122/12/7
f 125/5/3 126/6/3 128/7/3 127/8/3
f 127/8/4 128/7/4 132/9/4 131/10/4
f 131/10/8 132/9/8 130/12/8 129/11/8
f 129/11/5 130/12/5 126/13/5 125/14/5
f 127/15/6 131/10/6 129/11/6 125/16/6
f 132/9/7 128/17/7 126/18/7 130/12/7
f 133/5/3 134/6/3 136/7/3 135/8/3
f 135/8/4 136/7/4 140/9/4 139/10/4
f 139/10/8 140/9/8 138/12/8 137/11/8
f 137/11/5 138/12/5 134/13/5 133/14/5
f 135/15/6 139/10/6 137/11/6 133/16/6
f 140/9/7 136/17/7 134/18/7 138/12/7
f 141/5/3 142/6/3 144/7/3 143/8/3
f 143/8/4 144/7/4 148/9/4 147/10/4
f 147/10/8 148/9/8 146/12/8 145/11/8
f 145/11/5 146/12/5 142/13/5 141/14/5
f 143/15/6 147/10/6 145/11/6 141/16/6
f 148/9/7 144/17/7 142/18/7 146/12/7
f 149/5/3 150/6/3 152/7/3 151/8/3
f 151/8/4 152/7/4 156/9/4 155/10/4
f 155/10/8 156/9/8 154/12/8 153/11/8
f 153/11/5 154/12/5 150/13/5 149/14/5
f 151/15/6 155/10/6 153/11/6 149/16/6
f 156/9/7 152/17/7 150/18/7 154/12/7
f 157/5/3 158/6/3 160/7/3 159/8/3
f 159/8/4 160/7/4 164/9/4 163/10/4
f 163/10/8 164/9/8 162/12/8 161/11/8
f 161/11/5 162/12/5 158/13/5 157/14/5
f 159/15/6 163/10/6 161/11/6 157/16/6
f 164/9/7 160/17/7 158/18/7 162/12/7
f 165/5/3 166/6/3 168/7/3 167/8/3
f 167/8/4 168/7/4 172/9/4 171/10/4
f 171/10/8 172/9/8 170/12/8 169/11/8
f 169/11/5 170/12/5 166/13/5 165/14/5
f 167/15/6 171/10/6 169/11/6 165/16/6
f 172/9/7 168/17/7 166/18/7 170/12/7
f 173/5/5 174/6/5 176/7/5 175/8/5
f 175/8/3 176/7/3 180/9/3 179/10/3
f 179/10/4 180/9/4 178/12/4 177/11/4
f 177/11/8 178/12/8 174/13/8 173/14/8
f 175/15/6 179/10/6 177/11/6 173/16/6
f 180/9/7 176/17/7 174/18/7 178/12/7
f 181/5/32 182/6/32 184/7/32 183/8/32
f 183/8/33 184/7/33 188/9/33 187/10/33
f 187/10/34 188/9/34 186/12/34 185/11/34
f 185/11/35 186/12/35 182/13/35 181/14/35
f 183/15/6 187/10/6 185/11/6 181/16/6
f 188/9/7 184/17/7 182/18/7 186/12/7
f 189/5/36 190/6/36 192/7/36 191/8/36
f 191/8/37 192/7/37 196/9/37 195/10/37
f 195/10/38 196/9/38 194/12/38 193/11/38
f 193/11/39 194/12/39 190/13/39 189/14/39
f 191/15/6 195/10/6 193/11/6 189/16/6
f 196/9/7 192/17/7 190/18/7 194/12/7
f 197/5/5 198/6/5 200/7/5 199/8/5
f 199/8/3 200/7/3 204/9/3 203/10/3
f 203/10/4 204/9/4 202/12/4 201/11/4
f 201/11/8 202/12/8 198/13/8 197/14/8
f 199/15/6 203/10/6 201/11/6 197/16/6
f 204/9/7 200/17/7 198/18/7 202/12/7
f 205/5/40 206/6/40 208/7/40 207/8/40
f 207/8/41 208/7/41 212/9/41 211/10/41
f 211/10/42 212/9/42 210/12/42 209/11/42
f 209/11/43 210/12/43 206/13/43 205/14/43
f 207/15/6 211/10/6 209/11/6 205/16/6
f 212/9/7 208/17/7 206/18/7 210/12/7
f 213/5/44 214/6/44 216/7/44 215/8/44
f 215/8/45 216/7/45 220/9/45 219/10/45
f 219/10/46 220/9/46 218/12/46 217/11/46
f 217/11/47 218/12/47 214/13/47 213/14/47
f 215/15/48 219/10/48 217/11/48 213/16/48
f 220/9/49 216/17/49 214/18/49 218/12/49
f 221/5/50 222/6/50 224/7/50 223/8/50
f 223/8/51 224/7/51 228/9/51 227/10/51
f 227/10/52 228/9/52 226/12/52 225/11/52
f 225/11/53 226/12/53 222/13/53 221/14/53
f 223/15/54 227/10/54 225/11/54 221/16/54
f 228/9/55 224/17/55 222/18/55 226/12/55
f 230/10/4 229/9/4 231/9/4 232/10/4
f 35/9/8 36/10/8 232/10/8 231/9/8
f 36/10/6 34/10/6 230/10/6 232/10/6
f 34/10/3 33/9/3 229/9/3 230/10/3
f 35/9/8 231/9/8 238/9/8 233/9/8
f 231/9/4 229/9/4 239/9/4 238/9/4
f 33/9/5 35/9/5 233/9/5 236/9/5
f 234/9/13 235/9/13 236/9/13 233/9/13
f 238/9/15 239/9/15 240/9/15 237/9/15
f 233/9/12 238/9/12 237/9/12 234/9/12
f 239/9/11 236/9/11 235/9/11 240/9/11
f 235/9/7 234/9/7 237/9/7 240/9/7
