# Blender 4.4.3
# www.blender.org
o Cube
v -0.070000 1.790513 -0.000000
v -0.049000 2.640513 -0.980000
v 0.070000 1.790513 -0.000000
v 0.049000 2.640513 -0.980000
v -0.070000 2.508474 -0.239320
v -0.070000 2.701193 -0.682039
v 0.070000 2.701193 -0.682039
v 0.070000 2.508474 -0.239320
v -0.070000 2.273329 -1.094272
v -0.056000 1.896241 -0.733747
v 0.056000 1.896241 -0.733747
v 0.070000 2.273329 -1.094272
v 0.035000 1.790513 0.060622
v -0.824205 2.640513 0.532435
v -0.035000 1.790513 -0.060622
v -0.873205 2.640513 0.447565
v -0.172257 2.508474 0.180282
v -0.555663 2.701193 0.401641
v -0.625664 2.701193 0.280397
v -0.242257 2.508474 0.059039
v -0.912667 2.273329 0.607757
v -0.607444 1.896241 0.415371
v -0.663444 1.896241 0.318376
v -0.982667 2.273329 0.486514
v 0.035000 1.790513 -0.060622
v 0.873205 2.640513 0.447564
v -0.035000 1.790513 0.060622
v 0.824205 2.640513 0.532435
v 0.242257 2.508474 0.059038
v 0.625664 2.701193 0.280397
v 0.555663 2.701193 0.401641
v 0.172257 2.508474 0.180282
v 0.982668 2.273329 0.486514
v 0.663444 1.896241 0.318376
v 0.607444 1.896241 0.415371
v 0.912668 2.273329 0.607757
v 0.087431 -1.955311 -0.151435
v 0.174863 -1.955311 0.000000
v 0.087431 -1.955311 0.151435
v -0.087431 -1.955311 0.151435
v -0.174863 -1.955311 0.000000
v -0.087431 -1.955311 -0.151435
v -0.096825 0.388197 -0.167705
v -0.193649 0.388197 -0.000000
v -0.096825 0.388197 0.167705
v 0.096825 0.388197 0.167705
v 0.193649 0.388197 -0.000000
v 0.096825 0.388197 -0.167705
v 0.116190 0.080000 -1.012918
v 0.104917 -0.344624 -1.106144
v -0.104917 -0.344624 -1.106144
v -0.116190 0.080000 -1.012918
v 0.905490 -0.344622 -0.643933
v 0.819118 0.080000 -0.607082
v 0.935308 0.080000 -0.405836
v 1.010407 -0.344622 -0.462211
v 1.010407 -0.344621 0.462211
v 0.935308 0.080000 0.405836
v 0.819118 0.080000 0.607082
v 0.905490 -0.344624 0.643933
v 0.104917 -0.344624 1.106144
v 0.116190 0.080000 1.012918
v -0.116190 0.080000 1.012918
v -0.104917 -0.344624 1.106144
v -0.905490 -0.344621 0.643933
v -0.819118 0.080000 0.607082
v -0.935308 0.080000 0.405836
v -1.010407 -0.344621 0.462211
v -1.010407 -0.344622 -0.462211
v -0.935308 0.080000 -0.405836
v -0.819118 0.080000 -0.607082
v -0.905490 -0.344624 -0.643933
v 0.096825 1.888197 -0.167705
v -0.096825 1.888197 -0.167705
v -0.193649 1.888197 -0.000000
v -0.096825 1.888197 0.167705
v 0.096825 1.888197 0.167705
v 0.193649 1.888197 -0.000000
vn 0.5912 0.5947 -0.5448
vn -0.5912 0.5947 -0.5448
vn -0.6551 0.7516 0.0768
vn 0.6551 0.7516 0.0768
vn 0.6316 -0.6865 -0.3603
vn 0.6143 -0.1858 -0.7669
vn 0.6298 0.5264 0.5712
vn 0.5606 -0.5298 0.6364
vn -0.6143 -0.1858 -0.7669
vn -0.5606 -0.5298 0.6364
vn -0.6298 0.5264 0.5712
vn -0.6316 -0.6865 -0.3603
vn -0.7674 0.5947 -0.2396
vn -0.1762 0.5947 0.7844
vn 0.3941 0.7516 0.5289
vn -0.2610 0.7516 -0.6057
vn -0.6278 -0.6865 -0.3668
vn -0.9713 -0.1858 -0.1485
vn 0.1798 0.5264 -0.8310
vn 0.2708 -0.5298 -0.8037
vn -0.3570 -0.1858 0.9154
vn 0.8314 -0.5298 0.1674
vn 0.8096 0.5264 0.2598
vn 0.0038 -0.6865 0.7271
vn 0.1762 0.5947 0.7844
vn 0.7674 0.5947 -0.2396
vn 0.2610 0.7516 -0.6057
vn -0.3941 0.7516 0.5289
vn -0.0038 -0.6865 0.7271
vn 0.3570 -0.1858 0.9154
vn -0.8096 0.5264 0.2598
vn -0.8314 -0.5298 0.1674
vn 0.9713 -0.1858 -0.1485
vn -0.2708 -0.5298 -0.8037
vn -0.1798 0.5264 -0.8310
vn 0.6278 -0.6865 -0.3668
vn 0.7639 0.6131 -0.2016
vn 0.7221 0.6918 -0.0000
vn 0.7639 0.6131 0.2016
vn 0.5565 0.6131 0.5607
vn 0.3610 0.6918 0.6253
vn 0.2074 0.6131 0.7623
vn -0.2074 0.6131 0.7623
vn -0.3610 0.6918 0.6253
vn -0.5565 0.6131 0.5607
vn -0.7639 0.6131 0.2016
vn -0.7221 0.6918 -0.0000
vn -0.7639 0.6131 -0.2016
vn 0.2074 0.6131 -0.7623
vn 0.3610 0.6918 -0.6253
vn 0.5565 0.6131 -0.5607
vn -0.5793 -0.8151 -0.0000
vn -0.9508 -0.1511 0.2703
vn -0.9508 -0.1511 -0.2703
vn -0.2897 -0.8151 0.5017
vn -0.2413 -0.1511 0.9586
vn -0.7095 -0.1511 0.6883
vn 0.2897 -0.8151 0.5017
vn 0.7095 -0.1511 0.6883
vn 0.2413 -0.1511 0.9586
vn 0.5793 -0.8151 -0.0000
vn 0.9508 -0.1511 -0.2703
vn 0.9508 -0.1511 0.2703
vn -0.5565 0.6131 -0.5607
vn -0.3610 0.6918 -0.6253
vn -0.2074 0.6131 -0.7623
vn -0.2897 -0.8151 -0.5017
vn -0.7095 -0.1511 -0.6883
vn -0.2413 -0.1511 -0.9586
vn 0.2897 -0.8151 -0.5017
vn -0.3962 0.6100 -0.6862
vn 0.3962 0.6100 -0.6862
vn 0.2413 -0.1511 -0.9586
vn 0.7095 -0.1511 -0.6883
vn -0.7924 0.6100 -0.0000
vn -0.3962 0.6100 0.6862
vn 0.3962 0.6100 0.6862
vn 0.7924 0.6100 -0.0000
vt 0.894737 0.775488
vt 0.986414 0.775488
vt 0.986414 0.838174
vt 0.894737 0.838174
vt 0.803060 0.787084
vt 0.814656 0.775488
vt 0.865746 0.867165
vt 0.803060 0.867165
vt 0.814656 0.683811
vt 0.894737 0.683811
vt 0.803060 0.592133
vt 0.865746 0.592133
vt 0.894737 0.621124
vt 0.803060 0.672214
vt 0.894737 0.867165
vt 0.894737 0.958843
vt 0.865746 0.958843
vt 0.803060 0.958843
vt 0.711382 0.787084
vt 0.711382 0.775488
vt 0.803060 0.775488
vt 0.711382 0.867165
vt 0.187527 0.822271
vt 0.147824 0.993769
vt 0.066595 0.822271
vt 0.682461 0.822271
vt 0.678904 0.993769
vt 0.574859 0.822271
vt 0.548289 0.822271
vt 0.609775 0.993769
vt 0.477232 0.822271
vt 0.455411 0.822271
vt 0.504681 0.993769
vt 0.397315 0.822271
vt 0.291258 0.822271
vt 0.279435 0.993769
vt 0.218502 0.822271
vt 0.397060 0.354490
vt 0.427438 0.779298
vt 0.365465 0.779298
vt 0.532464 0.354490
vt 0.525070 0.779298
vt 0.446859 0.779298
vt 0.687716 0.354490
vt 0.682649 0.779298
vt 0.551644 0.779298
vt 0.077278 0.354490
vt 0.169406 0.779298
vt 0.041792 0.779298
vt 0.375876 0.822271
vt 0.395581 0.993769
vt 0.315225 0.822271
vt 0.275838 0.354490
vt 0.348578 0.779298
vt 0.285625 0.779298
vt 0.074103 0.028430
vt 0.088987 0.054210
vt 0.074103 0.079990
vt 0.044335 0.079990
vt 0.029451 0.054210
vt 0.044335 0.028430
vt 0.895788 0.016259
vt 0.976767 0.062352
vt 0.923892 0.091797
vt 0.896395 0.077435
vt 0.267494 0.779298
vt 0.191738 0.779298
vt 0.006428 0.822271
vt 0.005577 0.779298
vt 0.168458 0.354490
vt 0.007430 0.354490
vt 0.008332 0.993769
vt 0.923500 0.126652
vt 0.894507 0.143509
vt 0.867168 0.125119
vt 0.867824 0.092340
vt 0.815390 0.063163
vt 0.896299 0.202357
vt 0.815719 0.155978
vt 0.976767 0.155802
s 1
usemtl Material.001
f 4/1/1 2/2/2 6/3/3 7/4/4
f 11/5/5 12/6/6 4/1/1 7/4/4 8/7/7 3/8/8
f 9/9/9 2/10/2 4/1/1 12/6/6
f 1/11/10 5/12/11 6/13/3 2/10/2 9/9/9 10/14/12
f 7/15/4 6/16/3 5/17/11 8/7/7
f 3/8/8 8/7/7 5/17/11 1/18/10
f 11/5/5 10/19/12 9/20/9 12/21/6
f 10/19/12 11/5/5 3/8/8 1/22/10
f 16/1/13 14/2/14 18/3/15 19/4/16
f 23/5/17 24/6/18 16/1/13 19/4/16 20/7/19 15/8/20
f 21/9/21 14/10/14 16/1/13 24/6/18
f 13/11/22 17/12/23 18/13/15 14/10/14 21/9/21 22/14/24
f 19/15/16 18/16/15 17/17/23 20/7/19
f 15/8/20 20/7/19 17/17/23 13/18/22
f 23/5/17 22/19/24 21/20/21 24/21/18
f 22/19/24 23/5/17 15/8/20 13/22/22
f 28/1/25 26/2/26 30/3/27 31/4/28
f 35/5/29 36/6/30 28/1/25 31/4/28 32/7/31 27/8/32
f 33/9/33 26/10/26 28/1/25 36/6/30
f 25/11/34 29/12/35 30/13/27 26/10/26 33/9/33 34/14/36
f 31/15/28 30/16/27 29/17/35 32/7/31
f 27/8/32 32/7/31 29/17/35 25/18/34
f 35/5/29 34/19/36 33/20/33 36/21/30
f 34/19/36 35/5/29 27/8/32 25/22/34
f 55/23/37 47/24/38 58/25/39
f 59/26/40 46/27/41 62/28/42
f 63/29/43 45/30/44 66/31/45
f 67/32/46 44/33/47 70/34/48
f 49/35/49 48/36/50 54/37/51
f 41/38/52 68/39/53 69/40/54
f 40/41/55 64/42/56 65/43/57
f 39/44/58 60/45/59 61/46/60
f 38/47/61 56/48/62 57/49/63
f 71/50/64 43/51/65 52/52/66
f 42/53/67 72/54/68 51/55/69
f 37/56/70 38/57/61 39/58/58 40/59/55 41/60/52 42/61/67
f 48/62/50 43/63/65 74/64/71 73/65/72
f 49/35/49 50/66/73 51/55/69 52/52/66
f 53/67/74 54/37/51 55/23/37 56/48/62
f 57/49/63 58/25/39 59/68/40 60/69/59
f 61/46/60 62/28/42 63/29/43 64/42/56
f 65/43/57 66/31/45 67/32/46 68/39/53
f 69/40/54 70/34/48 71/50/64 72/54/68
f 52/52/66 43/51/65 48/36/50 49/35/49
f 42/53/67 51/55/69 50/66/73 37/70/70
f 72/54/68 42/53/67 41/38/52 69/40/54
f 68/39/53 41/38/52 40/41/55 65/43/57
f 64/42/56 40/41/55 39/44/58 61/46/60
f 60/69/59 39/71/58 38/47/61 57/49/63
f 56/48/62 38/47/61 37/70/70 53/67/74
f 71/50/64 52/52/66 51/55/69 72/54/68
f 67/32/46 70/34/48 69/40/54 68/39/53
f 63/29/43 66/31/45 65/43/57 64/42/56
f 59/26/40 62/28/42 61/46/60 60/45/59
f 55/23/37 58/25/39 57/49/63 56/48/62
f 49/35/49 54/37/51 53/67/74 50/66/73
f 47/24/38 55/23/37 54/37/51 48/36/50
f 46/72/41 59/68/40 58/25/39 47/24/38
f 45/30/44 63/29/43 62/28/42 46/27/41
f 44/33/47 67/32/46 66/31/45 45/30/44
f 43/51/65 71/50/64 70/34/48 44/33/47
f 37/70/70 50/66/73 53/67/74
f 74/64/71 75/73/75 76/74/76 77/75/77 78/76/78 73/65/72
f 47/77/38 48/62/50 73/65/72 78/76/78
f 45/78/44 46/79/41 77/75/77 76/74/76
f 43/63/65 44/80/47 75/73/75 74/64/71
f 46/79/41 47/77/38 78/76/78 77/75/77
f 44/80/47 45/78/44 76/74/76 75/73/75
