# Blender 4.4.3
# www.blender.org
mtllib seed_plot.mtl
o DirtPatch
v 1.705429 -0.528937 -0.219336
v -4.140017 0.973078 4.039247
v -4.215463 0.751933 -5.099599
v 1.021023 0.826795 -4.920571
v 5.090621 0.926583 -0.407306
v -0.342130 1.160028 0.712506
v -1.397990 -0.823873 3.753020
v 2.723415 -0.446751 -0.157847
v -2.624362 -0.406674 -0.510469
v 0.667756 -0.390677 -3.457109
v 4.951519 0.939718 2.002268
v -4.440034 1.013925 0.002990
v 4.025780 0.919020 -3.013231
v 2.747269 0.911364 3.910534
v 1.941222 1.085912 0.109536
v -1.179376 1.000672 2.190178
v -2.144067 1.085247 -1.681819
v -0.592643 1.032818 -3.848200
v 5.406194 -0.477661 2.345682
v 5.406729 -0.472746 2.226795
v -5.411826 -0.280501 -4.273393
v -5.411826 -0.007236 -5.324172
v -3.571702 -0.180441 -5.324172
v 3.855086 0.544014 5.278691
v 3.609135 0.575722 5.278951
v -2.813337 0.726886 5.285738
v -2.963526 0.737154 5.285896
v 0.295100 0.833706 -5.324172
v -0.821179 0.904414 -5.324172
v -1.117689 0.883036 -5.324172
v -3.398068 0.775145 -5.324172
v -2.477659 0.731278 5.285383
v 5.420198 0.821656 -0.768654
v 5.429012 0.639693 -2.728932
v 5.437298 0.554313 -4.571546
v 4.884475 0.470561 -5.324172
v 5.440682 0.428935 -5.324172
v 0.787212 0.741586 -5.324172
v -4.588006 0.643944 -5.324172
v -5.411826 0.801333 -1.632256
v -5.411826 0.634318 -4.574265
v -5.411826 0.764743 1.355672
v -5.411826 0.700063 3.801623
v -4.698999 0.647275 5.287730
v 5.393013 0.262499 5.277066
v 5.400294 0.556018 3.657827
v 5.409323 0.867885 1.649928
v 5.417347 0.873339 -0.134630
v -5.411826 0.496446 -5.324172
v -5.411826 0.473880 5.288484
v 5.143139 -0.378356 5.277330
v 5.393013 -0.229347 5.277066
v 5.395393 -0.301093 4.747828
v 4.833182 -0.277245 -5.324172
v 5.429212 -0.225035 -2.773264
v 5.440682 -0.226833 -5.324172
v 3.583555 -0.296404 -5.324172
v -0.591398 -0.193318 -5.324172
v -5.411826 -0.283334 -4.245839
v -5.411826 -0.284365 -4.198912
v -5.411826 -0.137288 -0.185911
v -5.411826 -0.245378 3.770432
v -5.411826 -0.303174 4.796523
v -5.411826 -0.353718 5.288484
v -3.201208 -0.699300 5.286147
v 5.416207 -0.272333 0.119018
v 5.406862 -0.469509 2.197242
v 2.664743 -0.606413 5.279949
v 5.403278 -0.474870 2.994180
v 4.929909 -0.489042 5.277555
vn 0.0423 -0.9983 -0.0411
vn -0.0220 -0.9956 -0.0911
vn -0.0259 -0.9991 -0.0344
vn 0.0822 -0.9936 -0.0776
vn 0.0844 -0.9940 -0.0695
vn 0.0883 -0.9912 -0.0982
vn -0.0907 -0.9638 -0.2507
vn 0.1264 0.9789 0.1605
vn 0.0678 0.9900 0.1234
vn -0.0708 0.9960 -0.0543
vn 0.0629 0.9934 -0.0962
vn 0.0496 0.9986 -0.0194
vn 0.0469 0.9987 -0.0221
vn 0.0488 0.9988 -0.0057
vn 0.0304 0.9990 -0.0324
vn 0.0257 0.9992 -0.0297
vn 0.0247 0.9993 -0.0292
vn 0.0306 0.9990 -0.0330
vn 0.0463 0.9916 -0.1209
vn -0.0048 0.9996 -0.0276
vn -0.0717 0.9946 -0.0754
vn -0.0471 0.9965 -0.0686
vn -0.1047 0.9934 0.0478
vn -0.0127 0.9996 0.0250
vn -0.0029 0.9999 0.0103
vn -0.0195 0.9952 0.0963
vn -0.0130 0.9966 0.0813
vn 0.0251 0.9745 0.2232
vn 0.0422 0.9984 0.0369
vn 0.0227 0.9989 0.0411
vn 0.0501 0.9987 -0.0026
vn 0.2118 0.9732 -0.0894
vn 0.2083 0.9756 -0.0695
vn 0.2078 0.9759 -0.0667
vn 0.2037 0.9780 -0.0444
vn 0.0736 0.9838 -0.1636
vn 0.1755 0.9378 -0.2997
vn -0.1051 0.9531 -0.2840
vn -0.1221 0.9909 -0.0563
vn -0.2328 0.9725 0.0119
vn -0.2144 0.9764 0.0258
vn -0.0501 0.9716 0.2311
vn 0.1774 0.9682 0.1763
vn 0.2643 0.9528 0.1492
vn 0.1578 0.9875 0.0037
vn 0.0640 0.9683 -0.2415
vn -0.1734 0.9686 -0.1781
vn -0.2337 0.9613 0.1462
vn 0.5087 -0.8528 0.1179
vn 0.2236 0.9715 -0.0782
vn 0.0827 -0.9966 0.0011
vn 0.0153 -0.9995 -0.0265
vn -0.0246 -0.9958 -0.0887
vn -0.0043 -0.9947 -0.1023
vn -0.0148 -0.9996 -0.0220
vn -0.0919 -0.9951 0.0365
vn -0.0993 -0.9947 -0.0272
vn -0.1427 -0.9882 -0.0557
vn -0.1538 -0.9829 -0.1010
vn 0.0663 -0.9977 -0.0160
vn 0.0740 -0.9928 -0.0939
vn 0.0865 -0.9904 -0.1081
vn 0.0159 -0.9949 0.0995
vn 0.0518 -0.9986 0.0045
vn 0.4589 -0.8839 0.0897
vn -0.0000 -0.0000 -1.0000
vn -1.0000 -0.0000 -0.0000
vn 1.0000 -0.0000 0.0045
vn 0.0011 -0.0000 1.0000
vt 0.136365 0.078731
vt 0.181819 0.000000
vt 0.225652 0.075923
vt 0.225473 0.078731
vt 0.909091 0.000000
vt 0.954545 0.078731
vt 0.863636 0.078731
vt 0.727273 0.000000
vt 0.772727 0.078731
vt 0.681818 0.078731
vt 0.545455 0.000000
vt 0.590909 0.078731
vt 0.500000 0.078731
vt 0.758431 0.157461
vt 0.713415 0.195722
vt 0.702161 0.157461
vt 0.272728 0.314921
vt 0.227273 0.393651
vt 0.188957 0.327284
vt 0.188388 0.314921
vt 0.045455 0.393651
vt 0.016414 0.343350
vt 0.085276 0.317071
vt 0.089458 0.317436
vt 0.727273 0.314921
vt 0.818182 0.314921
vt 0.772727 0.393651
vt 0.579344 0.314921
vt 0.622040 0.339730
vt 0.590909 0.393651
vt 0.545455 0.314921
vt 0.363637 0.314921
vt 0.486168 0.314921
vt 0.409092 0.393651
vt 0.500000 0.393651
vt 0.454546 0.472382
vt 0.681818 0.393651
vt 0.636364 0.472382
vt 0.643507 0.327293
vt 0.704681 0.314921
vt 0.863636 0.393651
vt 0.818182 0.472382
vt 0.892677 0.343350
vt 0.136365 0.393651
vt 0.090910 0.472382
vt 0.094064 0.320384
vt 0.174681 0.327284
vt 0.318182 0.393651
vt 0.272728 0.472382
vt 0.371779 0.300819
vt 0.448935 0.276889
vt 0.494954 0.264914
vt 0.506154 0.249536
vt 0.511858 0.256729
vt 0.554323 0.299561
vt 0.717428 0.297870
vt 0.748327 0.278455
vt 0.799452 0.282479
vt 0.835703 0.284573
vt 0.879585 0.295040
vt 0.011718 0.296065
vt 0.221225 0.258560
vt 0.251503 0.278158
vt 0.285945 0.292028
vt 0.353290 0.296999
vt 0.716641 0.267451
vt 0.903582 0.263849
vt 0.908758 0.293735
vt 0.216309 0.179350
vt 0.208560 0.157461
vt 0.226432 0.157461
vt 0.537575 0.143812
vt 0.519067 0.151426
vt 0.469128 0.132204
vt 0.562146 0.128550
vt 0.618323 0.126213
vt 0.654404 0.126214
vt 0.759133 0.156955
vt 0.759815 0.156366
vt 0.804558 0.133864
vt 0.898913 0.139831
vt 0.831805 0.133864
vt 0.916679 0.144319
vt 0.935744 0.150102
vt 0.978780 0.120708
vt 0.398260 0.139047
vt 0.409092 0.078731
vt 0.439964 0.132204
vt 0.322590 0.078731
vt 0.363637 0.000000
vt 0.319803 0.075923
vt 0.112130 0.120708
vt 0.166325 0.130625
vt 0.219073 0.092934
vt 0.191413 0.140843
vt 0.625000 0.500000
vt 0.452031 0.500000
vt 0.555481 0.500000
vt 0.583754 0.500000
vt 0.591839 0.500000
vt 0.596413 0.500000
vt 0.575536 0.500000
vt 0.558302 0.500000
vt 0.495342 0.500000
vt 0.461184 0.500000
vt 0.460829 0.500000
vt 0.460701 0.500000
vt 0.479085 0.500000
vt 0.465574 0.500000
vt 0.458349 0.500000
vt 0.437558 0.500000
vt 0.462205 0.500000
vt 0.468117 0.500000
vt 0.467892 0.500000
vt 0.549863 0.500000
vt 0.565535 0.500000
vt 0.576208 0.500000
vt 0.598953 0.500000
vt 0.605414 0.500000
vt 0.604732 0.500000
vt 0.565748 0.500000
vt 0.529059 0.500000
vt 0.467578 0.500000
vt 0.458610 0.500000
vt 0.436887 0.500000
vt 0.436539 0.500000
vt 0.437153 0.500000
vt 0.375000 0.500000
vt 0.375000 0.500000
s 1
usemtl Material.002
f 7/1/1 1/2/1 20/3/1 19/4/1
f 1/5/2 7/6/2 9/7/2
f 1/8/3 9/9/3 10/10/3
f 1/11/4 10/12/5 8/13/6
f 21/14/7 22/15/7 23/16/7
f 11/17/8 14/18/8 25/19/8 24/20/8
f 16/21/9 2/22/9 27/23/9 26/24/9
f 3/25/10 12/26/10 17/27/10
f 28/28/11 29/29/11 18/30/11 4/31/11
f 5/32/12 13/33/13 15/34/14
f 15/34/15 18/35/16 6/36/17
f 15/34/15 13/33/18 18/35/16
f 13/33/19 4/31/19 18/35/19
f 18/30/20 17/37/20 6/38/20
f 17/37/21 18/30/21 29/29/21 30/39/21
f 3/25/22 17/37/22 30/39/22 31/40/22
f 17/27/23 16/41/23 6/42/23
f 17/27/24 12/26/24 16/41/24
f 12/26/25 2/43/25 16/41/25
f 16/21/26 14/44/26 6/45/26
f 32/46/27 14/44/27 16/21/27 26/24/27
f 25/47/28 14/44/28 32/46/28
f 14/18/29 15/48/29 6/49/29
f 14/18/30 11/17/30 15/48/30
f 11/17/31 5/32/12 15/48/14
f 33/50/32 34/51/33 13/33/34 5/32/32
f 35/52/35 13/33/34 34/51/33
f 13/33/36 35/52/36 37/53/36 36/54/36 4/31/36
f 38/55/37 28/28/37 4/31/37
f 39/56/38 3/25/38 31/40/38
f 3/25/39 41/57/39 40/58/39 12/26/39
f 12/26/40 40/58/40 42/59/40
f 43/60/41 2/43/41 12/26/41 42/59/41
f 2/22/42 44/61/42 27/23/42
f 24/20/43 45/62/43 46/63/43 11/17/43
f 46/63/44 47/64/44 11/17/44
f 47/64/45 48/65/45 5/32/45 11/17/45
f 4/31/46 36/54/46 38/55/46
f 41/57/47 3/25/47 39/56/47 49/66/47
f 2/43/48 43/60/48 50/67/48 44/68/48
f 52/69/49 51/70/49 53/71/49
f 48/65/50 33/50/50 5/32/50
f 8/13/51 54/72/51 56/73/51 55/74/51
f 8/13/52 10/12/52 57/75/52 54/72/52
f 10/12/53 58/76/53 57/75/53
f 23/16/54 58/77/54 10/10/54 59/78/54 21/14/54
f 10/10/55 9/9/55 60/79/55 59/78/55
f 60/79/56 9/9/56 61/80/56
f 9/7/57 62/81/57 61/82/57
f 9/7/58 7/6/58 63/83/58 62/81/58
f 64/84/59 63/83/59 7/6/59 65/85/59
f 66/86/60 8/87/60 55/88/60
f 67/89/61 8/87/61 66/86/61
f 1/90/4 8/87/6 67/89/62 20/91/62
f 65/92/63 7/1/63 68/93/63
f 69/94/64 70/95/64 68/93/64 7/1/64 19/4/64
f 69/94/65 53/71/65 51/70/65 70/95/65
s 0
f 31/96/66 30/96/66 29/96/66 28/96/66 38/96/66 36/96/66 37/96/66 56/96/66 54/96/66 57/96/66 58/96/66 23/96/66 22/96/66 49/96/66 39/96/66
f 64/97/67 50/98/67 43/99/67 42/100/67 40/101/67 41/102/67 49/103/67 22/104/67 21/105/67 59/106/67 60/107/67 61/108/67 62/109/67 63/110/67
f 67/111/68 66/112/68 55/113/68 56/114/68 37/115/68 35/116/68 34/117/68 33/118/68 48/119/68 47/120/68 46/121/68 45/122/68 52/123/68 53/124/68 69/125/68 19/126/68 20/127/68
f 52/96/69 45/96/69 24/128/69 25/128/69 32/128/69 26/128/69 27/128/69 44/128/69 50/128/69 64/128/69 65/128/69 68/128/69 70/128/69 51/129/69
o Cube
v -6.011826 -0.969969 5.888484
v -6.011826 1.030031 5.888484
v -6.011826 -0.969969 5.288484
v -6.011826 1.030031 5.288484
v -5.411826 -0.969969 5.888484
v -5.411826 1.030031 5.888484
v -5.411826 -0.969969 5.288484
v -5.411826 1.030031 5.288484
v -6.011826 1.030031 -5.324172
v -6.011826 -0.969969 -5.324172
v -5.411826 -0.969969 -5.324172
v -5.411826 1.030031 -5.324172
v -6.011826 1.030031 -5.924172
v -6.011826 -0.969969 -5.924172
v -5.411826 -0.969969 -5.924172
v -5.411826 1.030031 -5.924172
v 5.440682 1.030031 -5.324172
v 5.440682 -0.969969 -5.324172
v 5.440682 1.030031 -5.924172
v 5.440682 -0.969969 -5.924172
v 6.040682 1.030031 -5.324172
v 6.040682 -0.969969 -5.324172
v 6.040682 1.030031 -5.924172
v 6.040682 -0.969969 -5.924172
v 5.393013 1.030031 5.277066
v 5.393013 -0.969969 5.277066
v 6.040682 1.030031 5.265648
v 6.040682 -0.969969 5.265648
v 6.024300 1.030031 5.888484
v 6.024300 -0.969969 5.888484
v 5.345345 -0.969969 5.888484
v 5.345345 1.030031 5.888484
v -6.011826 1.266936 5.888484
v -6.011826 1.266936 5.288484
v -5.411826 1.266936 5.288484
v -5.411826 1.266936 5.888484
v -6.011826 1.266936 -5.324172
v -5.411826 1.266936 -5.324172
v -6.011826 1.266936 -5.924172
v -5.411826 1.266936 -5.924172
v 5.440682 1.266936 -5.924172
v 5.440682 1.266936 -5.324172
v 6.040682 1.266936 -5.924172
v 6.040682 1.266936 -5.324172
v 5.393013 1.266936 5.277066
v 6.040682 1.266936 5.265648
v 6.024300 1.266936 5.888484
v 5.345345 1.266936 5.888484
vn -1.0000 -0.0000 -0.0000
vn -0.0000 -1.0000 -0.0000
vn -0.0000 -0.0000 1.0000
vn 1.0000 -0.0000 -0.0000
vn -0.0000 1.0000 -0.0000
vn -0.0000 -0.0000 -1.0000
vn 0.9997 -0.0000 0.0263
vn -1.0000 -0.0000 -0.0045
vn -0.0011 -0.0000 -1.0000
vn -0.0176 -0.0000 -0.9998
vn -0.9970 -0.0000 -0.0777
vt 0.375000 0.000000
vt 0.625000 0.000000
vt 0.625000 0.250000
vt 0.375000 0.250000
vt 0.375000 0.500000
vt 0.125000 0.500000
vt 0.625000 0.750000
vt 0.375000 0.750000
vt 0.625000 1.000000
vt 0.375000 1.000000
vt 0.125000 0.750000
vt 0.625000 0.500000
vt 0.875000 0.500000
vt 0.875000 0.750000
s 0
usemtl Material.001
f 71/130/70 72/131/70 74/132/70 73/133/70
f 77/134/71 73/135/71 80/135/71 81/134/71
f 76/136/72 75/137/72 101/137/72 102/136/72
f 75/137/72 76/136/72 72/138/72 71/139/72
f 73/135/71 77/134/71 75/137/71 71/140/71
f 76/136/73 78/141/73 105/141/73 106/136/73
f 82/141/72 81/134/72 88/134/72 87/141/72
f 74/142/74 78/141/74 82/141/74 79/142/74
f 73/133/70 74/132/70 79/132/70 80/133/70
f 78/141/73 77/134/73 81/134/73 82/141/73
f 84/133/75 83/132/75 86/141/75 85/134/75
f 81/134/71 80/135/71 84/135/71 85/134/71
f 99/136/76 97/141/76 116/141/76 117/136/76
f 80/133/70 79/132/70 83/132/70 84/133/70
f 86/141/75 83/132/75 109/132/75 110/141/75
f 81/134/71 85/134/71 90/134/71 88/134/71
f 86/141/74 82/141/74 87/141/74 89/141/74
f 85/134/75 86/141/75 89/141/75 90/134/75
f 91/141/73 92/134/73 94/134/73 93/141/73
f 90/134/75 89/141/75 93/141/75 94/134/75
f 88/134/71 90/134/71 94/134/71 92/134/71
f 91/141/74 87/141/74 95/141/74 97/141/74
f 98/134/76 97/141/76 99/136/76 100/137/76
f 92/134/73 91/141/73 97/141/73 98/134/73
f 88/134/71 92/134/71 98/134/71 96/134/71
f 87/141/77 88/134/77 96/134/77 95/141/77
f 102/136/72 101/137/72 100/137/72 99/136/72
f 75/137/71 77/134/71 96/134/71 101/137/71
f 78/141/74 76/136/74 102/136/74 95/141/74
f 77/134/78 78/141/78 95/141/78 96/134/78
f 79/142/72 82/141/72 108/141/72 107/142/72
f 98/134/71 100/137/71 101/137/71 96/134/71
f 105/141/74 104/142/74 103/143/74 106/136/74
f 107/142/74 108/141/74 110/141/74 109/142/74
f 111/141/74 112/141/74 114/141/74 113/141/74
f 115/141/74 118/136/74 117/136/74 116/141/74
f 102/136/72 99/136/72 117/136/72 118/136/72
f 89/141/70 87/141/70 112/141/70 111/141/70
f 97/141/79 95/141/79 115/141/79 116/141/79
f 95/141/80 102/136/80 118/136/80 115/141/80
f 74/132/70 72/131/70 103/131/70 104/132/70
f 91/141/73 93/141/73 113/141/73 114/141/73
f 82/141/73 86/141/73 110/141/73 108/141/73
f 87/141/72 91/141/72 114/141/72 112/141/72
f 72/138/72 76/136/72 106/136/72 103/138/72
f 93/141/75 89/141/75 111/141/75 113/141/75
f 83/132/70 79/132/70 107/132/70 109/132/70
f 78/141/75 74/142/75 104/142/75 105/141/75
