# Blender 4.5.0
# www.blender.org
mtllib market_stall_jess.mtl
o Cube
v -2.000000 0.000000 0.500000
v -2.000000 1.000000 0.500000
v -2.000000 0.000000 -0.500000
v -2.000000 1.000000 -0.500000
v 2.000000 0.000000 0.500000
v 2.000000 1.000000 0.500000
v 2.000000 0.000000 -0.500000
v 2.000000 1.000000 -0.500000
v -2.000000 0.902832 0.500000
v -2.000000 0.902832 -0.500000
v 2.000000 0.902832 -0.500000
v 2.000000 0.902832 0.500000
v -2.000000 0.902832 0.575469
v -2.000000 1.000000 0.575469
v 2.000000 1.000000 0.575469
v 2.000000 0.902832 0.575469
v 1.900000 0.000000 -0.500000
v 1.900000 1.000000 -0.500000
v 1.900000 0.000000 0.500000
v 1.900000 1.000000 0.500000
v 1.900000 0.902832 0.500000
v 1.900000 0.902832 -0.500000
v 1.900000 1.000000 0.575469
v 1.900000 0.902832 0.575469
v -1.900000 0.000000 -0.500000
v -1.900000 1.000000 0.500000
v -1.900000 0.902832 0.500000
v -1.900000 1.000000 0.575469
v -1.900000 0.902832 0.575469
v -1.900000 1.000000 -0.500000
v -1.900000 0.000000 0.500000
v -1.900000 0.902832 -0.500000
v -2.000000 0.902832 -2.200000
v -2.000000 0.000000 -2.200000
v -1.900000 0.000000 -2.200000
v 1.900000 1.000000 -2.200000
v 2.000000 1.000000 -2.200000
v 2.000000 0.902832 -2.200000
v 2.000000 0.000000 -2.200000
v -2.000000 1.000000 -2.200000
v 1.900000 0.902832 -2.200000
v 1.900000 0.000000 -2.200000
v -1.900000 1.000000 -2.200000
v -1.900000 0.902832 -2.200000
v 2.000000 0.902832 -2.000000
v 2.000000 0.000000 -2.000000
v 2.000000 1.000000 -2.000000
v 1.900000 0.902832 -2.000000
v 1.900000 0.000000 -2.000000
v 1.900000 1.000000 -2.000000
v -2.000000 1.000000 -2.000000
v -2.000000 0.902832 -2.000000
v -1.900000 0.000000 -2.000000
v -1.900000 0.902832 -2.000000
v -2.000000 0.000000 -2.000000
v -1.900000 1.000000 -2.000000
v 1.900000 2.745044 -0.493282
v 2.000000 2.745044 -0.493282
v -2.000000 2.745044 -0.493282
v -1.900000 2.745044 -0.493282
v 1.900000 3.247012 -2.195842
v 2.000000 3.247012 -2.195842
v -2.000000 3.247012 -2.195842
v -1.900000 3.247012 -2.195842
v -2.000000 3.187957 -1.995541
v 2.000000 3.187957 -1.995541
v -1.900000 2.912715 -2.000000
v 1.900000 2.912715 -2.000000
v 1.900000 2.803824 -0.474240
v 2.000000 2.803824 -0.474240
v -2.000000 2.803824 -0.474240
v -1.900000 2.803824 -0.474240
v 1.900000 3.305792 -2.176799
v 2.000000 3.305792 -2.176799
v -2.000000 3.305792 -2.176799
v -1.900000 3.305792 -2.176799
v -2.000000 3.246737 -1.976498
v 2.000000 3.246737 -1.976498
v -1.900000 3.246737 -1.976498
v 1.900000 3.246737 -1.976498
v 1.900000 2.846282 -0.460485
v 2.000000 2.846282 -0.460485
v -2.000000 2.846282 -0.460485
v -1.900000 2.846282 -0.460485
v 1.900000 3.348250 -2.163044
v 2.000000 3.348250 -2.163044
v -2.000000 3.348250 -2.163044
v -1.900000 3.348250 -2.163044
v -2.000000 3.289195 -1.962743
v 2.000000 3.289195 -1.962743
v -1.900000 3.289195 -1.962743
v 1.900000 3.289195 -1.962743
v 1.900000 2.241757 0.179583
v 2.000000 2.241757 0.179583
v -2.000000 2.241757 0.179583
v -1.900000 2.241757 0.179583
v 1.900000 2.288359 0.221689
v 2.000000 2.288359 0.221689
v -2.000000 2.288359 0.221689
v -1.900000 2.288359 0.221689
v 2.000000 2.322019 0.252101
v 1.900000 2.322019 0.252101
v -2.000000 2.322019 0.252101
v -1.900000 2.322019 0.252101
vn -1.0000 -0.0000 -0.0000
vn 1.0000 -0.0000 -0.0000
vn -0.0000 1.0000 -0.0000
vn -0.0000 -0.0000 1.0000
vn -0.0000 -1.0000 -0.0000
vn -0.0000 -0.0000 -1.0000
vn -0.0000 0.0019 -1.0000
vn -0.0000 -0.8008 -0.5990
vn -0.0000 0.9592 0.2828
vn -0.0000 0.3082 -0.9513
vn -0.0000 -0.0038 1.0000
vn -0.0000 -0.9939 -0.1106
vn -0.0000 -0.3082 0.9513
vn -0.0000 -0.6704 0.7420
vn -0.0000 0.8055 0.5926
vn -0.0000 0.8036 0.5952
vt 0.668989 0.738530
vt 0.668989 0.749994
vt 0.786967 0.749994
vt 0.786967 0.738530
vt 0.963933 0.632016
vt 0.963933 0.738530
vt 0.987528 0.738530
vt 0.987528 0.632016
vt 0.786940 0.736737
vt 0.786940 0.748209
vt 0.668875 0.748209
vt 0.668875 0.736737
vt 0.524204 0.642970
vt 0.512334 0.642970
vt 0.512334 0.634012
vt 0.524204 0.634012
vt 0.524204 0.761671
vt 0.512334 0.761671
vt 0.520167 0.634138
vt 0.520167 0.743222
vt 0.508085 0.743222
vt 0.508085 0.634138
vt 0.786940 0.630144
vt 0.668875 0.630144
vt 0.513137 0.751445
vt 0.513137 0.637818
vt 0.991390 0.637818
vt 0.991390 0.751445
vt 0.668989 0.632016
vt 0.786967 0.632016
vt 0.536226 0.507394
vt 0.536226 0.518356
vt 0.524945 0.518356
vt 0.524945 0.507394
vt 0.981257 0.516970
vt 0.993352 0.516970
vt 0.993352 0.507842
vt 0.981257 0.507842
vt 0.660086 0.738530
vt 0.660086 0.749994
vt 0.659965 0.748209
vt 0.659965 0.736737
vt 0.521635 0.516970
vt 0.521635 0.507842
vt 0.976185 0.507394
vt 0.976185 0.518356
vt 0.964904 0.518356
vt 0.964904 0.507394
vt 0.529883 0.636091
vt 0.529883 0.738156
vt 0.959470 0.738156
vt 0.959470 0.636091
vt 0.991384 0.634138
vt 0.991384 0.743222
vt 0.979302 0.743222
vt 0.979302 0.634138
vt 0.987135 0.761671
vt 0.975265 0.761671
vt 0.975265 0.642970
vt 0.987135 0.642970
vt 0.975265 0.634012
vt 0.987135 0.634012
vt 0.529883 0.749141
vt 0.959470 0.749141
vt 0.963933 0.749994
vt 0.987528 0.749994
vt 0.964036 0.736737
vt 0.964036 0.630144
vt 0.987649 0.630144
vt 0.987649 0.736737
vt 0.509540 0.516970
vt 0.509540 0.507842
vt 0.971155 0.738909
vt 0.971155 0.750362
vt 0.982942 0.750362
vt 0.982942 0.738909
vt 0.971155 0.632494
vt 0.982942 0.632494
vt 0.511469 0.738909
vt 0.511469 0.750362
vt 0.523256 0.750362
vt 0.523256 0.738909
vt 0.511469 0.632494
vt 0.523256 0.632494
vt 0.964036 0.748209
vt 0.987649 0.748209
vt 0.513137 0.763674
vt 0.991390 0.763674
vt 0.971155 0.989502
vt 0.982942 0.989502
vt 0.786174 0.930134
vt 0.963407 0.982388
vt 0.782296 0.766510
vt 0.981306 0.766510
vt 0.981306 0.991335
vt 0.781405 0.969090
vt 0.783545 0.754362
vt 0.783545 0.767091
vt 0.980046 0.767091
vt 0.980046 0.754362
vt 0.987038 0.989355
vt 0.783545 0.636090
vt 0.980046 0.636090
vt 0.991390 0.976947
vt 0.513137 0.976947
vt 0.782296 0.753619
vt 0.981306 0.753619
vt 0.782296 0.633837
vt 0.981306 0.633837
vt 0.558691 0.582862
vt 0.561336 0.586116
vt 0.540070 0.602669
vt 0.531356 0.605087
vt 0.833151 0.526752
vt 0.841955 0.533049
vt 0.840008 0.535826
vt 0.832233 0.529653
vt 0.009100 0.792992
vt 0.491339 0.792992
vt 0.491339 0.991749
vt 0.009100 0.991749
vt 0.563058 0.587651
vt 0.564456 0.588971
vt 0.542741 0.604669
vt 0.541337 0.603931
vt 0.827864 0.526139
vt 0.827667 0.529344
vt 0.963509 0.980774
vt 0.786146 0.928482
vt 0.987158 0.987746
vt 0.518578 0.749141
vt 0.529883 0.921756
vt 0.518578 0.921756
vt 0.782665 0.967117
vt 0.980046 0.989082
vt 0.970774 0.749141
vt 0.970774 0.921756
vt 0.959470 0.921756
vt 0.523256 0.989502
vt 0.511469 0.989502
vt 0.838321 0.538019
vt 0.831688 0.531460
vt 0.912336 0.598058
vt 0.832353 0.545654
vt 0.833205 0.543077
vt 0.913178 0.595649
vt 0.916203 0.590210
vt 0.917867 0.588185
vt 0.950606 0.606856
vt 0.949084 0.608113
vt 0.827647 0.531599
vt 0.627198 0.533493
vt 0.627248 0.535882
vt 0.009100 0.568483
vt 0.491339 0.568483
vt 0.491339 0.675117
vt 0.009100 0.675117
vt 0.009100 0.376093
vt 0.491339 0.376093
vt 0.615424 0.538148
vt 0.617314 0.540137
vt 0.919907 0.585817
vt 0.621742 0.531667
vt 0.626789 0.530328
vt 0.622863 0.534045
vt 0.623019 0.544767
vt 0.618918 0.541705
vt 0.623516 0.535466
vt 0.566955 0.592483
vt 0.567806 0.594196
vt 0.537274 0.612704
vt 0.542092 0.608009
vt 0.623827 0.546794
vt 0.951921 0.604629
vt 0.965968 0.609174
vt 0.956716 0.618066
vt 0.491339 0.683088
vt 0.009100 0.683088
vt 0.949043 0.612363
vt 0.923253 0.580494
s 0
usemtl Material.001
f 9/1/1 2/2/1 4/3/1 10/4/1
f 55/5/1 52/6/1 33/7/1 34/8/1
f 11/9/2 8/10/2 6/11/2 12/12/2
f 26/13/3 2/14/3 14/15/3 28/16/3
f 30/17/3 4/18/3 2/14/3 26/13/3
f 31/19/4 27/20/4 9/21/4 1/22/4
f 7/23/2 11/9/2 12/12/2 5/24/2
f 54/25/4 53/26/4 49/27/4 48/28/4
f 1/29/1 9/1/1 10/4/1 3/30/1
f 29/31/4 28/32/4 14/33/4 13/34/4
f 21/35/5 12/36/5 16/37/5 24/38/5
f 2/2/1 9/1/1 13/39/1 14/40/1
f 12/12/2 6/11/2 15/41/2 16/42/2
f 27/43/5 21/35/5 24/38/5 29/44/5
f 16/45/4 15/46/4 23/47/4 24/48/4
f 25/49/6 32/50/6 22/51/6 17/52/6
f 5/53/4 12/54/4 21/55/4 19/56/4
f 8/57/3 18/58/3 20/59/3 6/60/3
f 6/60/3 20/59/3 23/61/3 15/62/3
f 32/50/6 30/63/6 18/64/6 22/51/6
f 52/6/1 51/65/1 40/66/1 33/7/1
f 45/67/2 46/68/2 39/69/2 38/70/2
f 9/71/5 27/43/5 29/44/5 13/72/5
f 24/48/4 23/47/4 28/32/4 29/31/4
f 19/56/4 21/55/4 27/20/4 31/19/4
f 18/58/3 30/17/3 26/13/3 20/59/3
f 20/59/3 26/13/3 28/16/3 23/61/3
f 41/73/6 36/74/6 37/75/6 38/76/6
f 42/77/6 41/73/6 38/76/6 39/78/6
f 33/79/6 40/80/6 43/81/6 44/82/6
f 34/83/6 33/79/6 44/82/6 35/84/6
f 47/85/2 45/67/2 38/70/2 37/86/2
f 56/87/4 54/25/4 48/28/4 50/88/4
f 37/75/7 36/74/7 61/89/7 62/90/7
f 51/65/1 4/3/1 59/91/1 65/92/1
f 30/93/2 56/94/2 67/95/2 60/96/2
f 44/82/6 43/81/6 36/74/6 41/73/6
f 22/97/1 18/98/1 50/99/1 48/100/1
f 40/66/1 51/65/1 65/92/1 63/101/1
f 17/102/1 22/97/1 48/100/1 49/103/1
f 8/10/2 11/9/2 45/67/2 47/85/2
f 11/9/2 7/23/2 46/68/2 45/67/2
f 56/87/4 50/88/4 68/104/4 67/105/4
f 30/93/2 32/106/2 54/107/2 56/94/2
f 10/4/1 4/3/1 51/65/1 52/6/1
f 32/106/2 25/108/2 53/109/2 54/107/2
f 3/30/1 10/4/1 52/6/1 55/5/1
f 35/84/6 44/82/6 41/73/6 42/77/6
f 57/110/8 58/111/8 94/112/8 93/113/8
f 63/114/1 65/115/1 77/116/1 75/117/1
f 72/118/9 69/119/9 80/120/9 79/121/9
f 70/122/2 82/123/2 101/124/2 98/125/2
f 64/126/10 63/114/10 75/117/10 76/127/10
f 8/10/2 47/85/2 66/128/2 58/129/2
f 47/85/2 37/86/2 62/130/2 66/128/2
f 4/131/11 30/63/11 60/132/11 59/133/11
f 50/99/1 18/98/1 57/134/1 68/135/1
f 18/64/11 8/136/11 58/137/11 57/138/11
f 36/74/7 43/81/7 64/139/7 61/89/7
f 43/81/7 40/80/7 63/140/7 64/139/7
f 75/117/1 77/116/1 89/141/1 87/142/1
f 72/143/2 79/144/2 91/145/2 84/146/2
f 83/147/1 71/148/1 99/149/1 103/150/1
f 76/127/10 75/117/10 87/142/10 88/151/10
f 73/152/10 76/127/10 88/151/10 85/153/10
f 60/154/8 57/155/8 93/156/8 96/157/8
f 60/154/12 67/158/12 68/159/12 57/155/12
f 58/111/2 66/160/2 78/161/2 70/122/2
f 65/115/1 59/162/1 71/148/1 77/116/1
f 62/163/10 61/164/10 73/152/10 74/165/10
f 66/160/2 62/163/2 74/165/2 78/161/2
f 61/164/10 64/126/10 76/127/10 73/152/10
f 88/151/9 91/145/9 92/166/9 85/153/9
f 89/141/9 91/145/9 88/151/9 87/142/9
f 92/166/9 90/167/9 86/168/9 85/153/9
f 81/169/9 82/123/9 90/167/9 92/166/9
f 83/147/9 84/146/9 91/145/9 89/141/9
f 81/169/1 69/170/1 97/171/1 102/172/1
f 80/173/1 69/170/1 81/169/1 92/166/1
f 79/144/13 80/173/13 92/166/13 91/145/13
f 70/122/2 78/161/2 90/167/2 82/123/2
f 77/116/1 71/148/1 83/147/1 89/141/1
f 74/165/10 73/152/10 85/153/10 86/168/10
f 78/161/2 74/165/2 86/168/2 90/167/2
f 95/174/14 96/175/14 100/176/14 99/149/14
f 93/113/14 94/112/14 98/125/14 97/171/14
f 97/171/14 98/125/14 101/124/14 102/172/14
f 93/156/14 97/177/14 100/178/14 96/157/14
f 99/149/14 100/176/14 104/179/14 103/150/14
f 82/123/15 81/169/15 102/172/15 101/124/15
f 58/111/2 70/122/2 98/125/2 94/112/2
f 59/162/8 60/180/8 96/175/8 95/174/8
f 72/143/2 84/146/2 104/179/2 100/176/2
f 84/146/15 83/147/15 103/150/15 104/179/15
f 71/148/1 59/162/1 95/174/1 99/149/1
f 69/119/16 72/118/16 100/178/16 97/177/16
