# Blender 4.5.0
# www.blender.org
mtllib seeds.mtl
o Cube
v 0.210000 0.600000 -0.300000
v 0.210000 -0.000000 -0.300000
v 0.210000 0.600000 0.300000
v 0.210000 0.000000 0.300000
v -0.210000 0.600000 -0.300000
v -0.210000 -0.000000 -0.300000
v -0.210000 0.600000 0.300000
v -0.210000 0.000000 0.300000
v 0.210000 0.701984 0.015142
v 0.210000 0.701984 -0.015142
v 0.210000 -0.000000 -0.015142
v 0.210000 0.000000 0.015142
v -0.210000 0.701984 -0.015142
v -0.210000 0.701984 0.015142
v -0.210000 0.000000 0.015142
v -0.210000 -0.000000 -0.015142
v 0.210000 0.782122 0.015142
v 0.210000 0.782122 -0.015142
v -0.210000 0.782122 -0.015142
v -0.210000 0.782122 0.015142
v -0.142381 0.600000 0.300000
v 0.142381 0.600000 0.300000
v 0.142381 0.000000 0.300000
v -0.142381 0.000000 0.300000
v 0.142381 0.600000 -0.300000
v -0.142381 0.600000 -0.300000
v -0.142381 -0.000000 -0.300000
v 0.142381 -0.000000 -0.300000
v 0.142381 0.000000 0.015142
v -0.142381 0.000000 0.015142
v 0.142381 -0.000000 -0.015142
v -0.142381 -0.000000 -0.015142
v -0.142381 0.701984 0.015142
v 0.142381 0.701984 0.015142
v -0.142381 0.701984 -0.015142
v 0.142381 0.701984 -0.015142
v -0.142381 0.825450 0.015142
v 0.142381 0.825450 0.015142
v -0.142381 0.825450 -0.015142
v 0.142381 0.825450 -0.015142
vn 1.0000 -0.0000 -0.0000
vn -0.0000 -0.0000 1.0000
vn -1.0000 -0.0000 -0.0000
vn -0.0000 -0.0000 -1.0000
vn -0.0000 0.9415 -0.3371
vn -0.0000 -1.0000 -0.0000
vn -0.0000 0.9415 0.3371
vn -0.5395 0.8420 -0.0000
vn 0.5395 0.8420 -0.0000
vn -0.0000 1.0000 -0.0000
vt 0.678877 0.775243
vt 0.989509 0.664032
vt 0.989509 0.009745
vt 0.678877 0.009745
vt 0.146597 0.125890
vt 0.174705 0.125890
vt 0.174705 0.375297
vt 0.146597 0.375297
vt 0.679802 0.775243
vt 0.990433 0.664032
vt 0.990433 0.009745
vt 0.679802 0.009745
vt 0.028228 0.874110
vt 0.000120 0.874110
vt 0.000120 0.624703
vt 0.028228 0.624703
vt 0.146597 0.999880
vt 0.146597 0.874110
vt 0.174705 0.874110
vt 0.174705 0.999880
vt 0.028228 0.506294
vt 0.000120 0.506294
vt 0.028228 0.375297
vt 0.028228 0.493706
vt 0.000120 0.493706
vt 0.000120 0.375297
vt 0.146597 0.000120
vt 0.174705 0.000120
vt 0.193923 0.007174
vt 0.193923 0.090895
vt 0.225560 0.090895
vt 0.225559 0.007174
vt 0.336147 0.664032
vt 0.646778 0.775243
vt 0.646778 0.009745
vt 0.336147 0.009745
vt 0.335222 0.664032
vt 0.645854 0.775243
vt 0.645854 0.009745
vt 0.335222 0.009745
vt 0.876372 0.984995
vt 0.876372 0.953359
vt 0.994109 0.953357
vt 0.994109 0.984995
vt 0.225560 0.639907
vt 0.225560 0.556186
vt 0.193923 0.556186
vt 0.193923 0.639907
vt 0.882207 0.788874
vt 0.882207 0.985535
vt 0.989913 0.916521
vt 0.989913 0.788874
vt 0.428630 0.793463
vt 0.428630 0.990124
vt 0.320924 0.921110
vt 0.320924 0.793463
vt 0.989912 0.793463
vt 0.989912 0.921110
vt 0.882206 0.990124
vt 0.882206 0.793463
vt 0.320924 0.788874
vt 0.320924 0.916521
vt 0.428630 0.985534
vt 0.428630 0.788874
vt 0.341169 0.984995
vt 0.341169 0.953358
vt 0.458905 0.953358
vt 0.458905 0.984995
vt 0.000120 0.125890
vt 0.000120 0.000120
vt 0.028228 0.000120
vt 0.028228 0.125890
vt 0.174705 0.493706
vt 0.174705 0.506294
vt 0.146597 0.506294
vt 0.146597 0.493706
vt 0.174705 0.624703
vt 0.146597 0.624703
vt 0.000120 0.999880
vt 0.028228 0.999880
s 1
usemtl Material.002
f 9/1/1 3/2/1 4/3/1 12/4/1
f 21/5/2 7/6/2 8/7/2 24/8/2
f 13/9/3 5/10/3 6/11/3 16/12/3
f 25/13/4 1/14/4 2/15/4 28/16/4
f 35/17/5 26/18/5 5/19/5 13/20/5
f 31/21/6 28/16/6 2/15/6 11/22/6
f 23/23/6 29/24/6 12/25/6 4/26/6
f 29/24/6 31/21/6 11/22/6 12/25/6
f 21/5/7 33/27/7 14/28/7 7/6/7
f 14/29/3 20/30/3 19/31/3 13/32/3
f 7/33/3 14/34/3 15/35/3 8/36/3
f 14/34/3 13/9/3 16/12/3 15/35/3
f 1/37/1 10/38/1 11/39/1 2/40/1
f 10/38/1 9/1/1 12/4/1 11/39/1
f 37/41/8 39/42/8 19/43/8 20/44/8
f 10/45/1 18/46/1 17/47/1 9/48/1
f 33/49/2 37/50/2 20/51/2 14/52/2
f 36/53/4 40/54/4 18/55/4 10/56/4
f 13/57/4 19/58/4 39/59/4 35/60/4
f 35/60/4 39/59/4 40/54/4 36/53/4
f 9/61/2 17/62/2 38/63/2 34/64/2
f 34/64/2 38/63/2 37/50/2 33/49/2
f 17/65/9 18/66/9 40/67/9 38/68/9
f 38/68/10 40/67/10 39/42/10 37/41/10
f 3/69/7 9/70/7 34/71/7 22/72/7
f 22/72/7 34/71/7 33/27/7 21/5/7
f 15/73/6 16/74/6 32/75/6 30/76/6
f 30/76/6 32/75/6 31/21/6 29/24/6
f 8/7/6 15/73/6 30/76/6 24/8/6
f 24/8/6 30/76/6 29/24/6 23/23/6
f 16/74/6 6/77/6 27/78/6 32/75/6
f 32/75/6 27/78/6 28/16/6 31/21/6
f 10/79/5 1/14/5 25/13/5 36/80/5
f 36/80/5 25/13/5 26/18/5 35/17/5
f 5/19/4 26/18/4 27/78/4 6/77/4
f 26/18/4 25/13/4 28/16/4 27/78/4
f 3/69/2 22/72/2 23/23/2 4/26/2
f 22/72/2 21/5/2 24/8/2 23/23/2
