# Blender 4.5.0
# www.blender.org
mtllib greybox.mtl
o Cube
v -0.500000 0.000000 0.500000
v -0.500000 1.000000 0.500000
v -0.500000 -0.000000 -0.500000
v -0.500000 1.000000 -0.500000
v 0.500000 0.000000 0.500000
v 0.500000 1.000000 0.500000
v 0.500000 -0.000000 -0.500000
v 0.500000 1.000000 -0.500000
vn -1.0000 -0.0000 -0.0000
vn -0.0000 -0.0000 -1.0000
vn 1.0000 -0.0000 -0.0000
vn -0.0000 -0.0000 1.0000
vn -0.0000 -1.0000 -0.0000
vn -0.0000 1.0000 -0.0000
vt 0.000000 1.000000
vt 0.002367 0.000000
vt 1.000000 0.000000
vt 1.000000 1.000000
s 1
usemtl Grass
f 8/2/6 4/3/6 2/4/6 6/1/6
usemtl Stone
f 1/1/1 2/2/1 4/3/1 3/4/1
f 3/3/2 4/4/2 8/1/2 7/2/2
f 7/3/3 8/4/3 6/1/3 5/2/3
f 5/3/4 6/4/4 2/1/4 1/2/4
f 3/2/5 7/3/5 5/4/5 1/1/5
