# Blender 4.5.0
# www.blender.org
mtllib rocky_inner_edge.mtl
o Cube
v -0.500000 1.000000 -0.500000
v 0.500000 1.000000 -0.500000
v -0.500000 0.900000 0.500000
v -0.500000 1.000000 0.400000
v -0.500000 0.970711 0.470711
v -0.400000 1.000000 0.500000
v 0.500000 1.000000 0.500000
v -0.470711 0.970711 0.500000
vn -0.5365 0.4553 0.7105
vn -0.3409 0.4693 0.8146
vn -0.8146 0.4693 0.3410
vn -0.2614 0.7982 0.5428
vn -0.5428 0.7982 0.2613
vn -0.0000 1.0000 -0.0000
vt 0.600000 0.750000
vt 0.618652 0.743652
vt 0.625000 1.000000
vt 0.875000 0.750000
vt 0.625000 0.725000
vt 0.875000 0.725000
vt 0.000000 0.000000
s 1
usemtl Material.004
f 3/1/1 8/2/2 5/3/3
f 5/4/3 8/2/2 6/5/4 4/6/5
s 0
f 2/7/6 1/7/6 7/7/6
s 1
f 4/6/5 6/5/4 7/7/6 1/7/6
