# Blender 4.5.0
# www.blender.org
mtllib rocky_edge.mtl
o Cube
v -0.500000 0.000000 0.500000
v -0.500000 1.000000 -0.500000
v 0.500000 0.000000 0.500000
v 0.500000 1.000000 -0.500000
v -0.500000 0.900000 0.500000
v -0.500000 1.000000 0.400000
v -0.500000 0.970711 0.470711
v 0.500000 1.000000 0.400000
v 0.500000 0.900000 0.500000
v 0.500000 0.970711 0.470711
vn -0.0000 0.1951 0.9808
vn -0.0000 0.7071 0.7071
vn -0.0000 0.9808 0.1951
vn -0.0000 -0.0000 1.0000
vn -0.0000 1.0000 -0.0000
vt 0.600000 1.000000
vt 0.600000 0.750000
vt 0.618652 0.743652
vt 0.625000 1.000000
vt 0.875000 0.750000
vt 0.625000 0.725000
vt 0.875000 0.725000
vt 0.375000 0.750000
vt 0.375000 1.000000
vt 0.625000 0.500000
vt 0.875000 0.500000
s 1
usemtl Material.002
f 5/1/1 9/2/1 10/3/2 7/4/2
f 7/5/2 10/3/2 8/6/3 6/7/3
f 3/8/4 9/2/1 5/1/1 1/9/4
f 4/10/5 2/11/5 6/7/3 8/6/3
