# Blender 4.5.0
# www.blender.org
mtllib rocky_slope.mtl
o Cube
v -0.500000 0.000000 0.500000
v -0.500000 1.000000 -0.500000
v 0.500000 0.000000 0.500000
v 0.500000 1.000000 -0.500000
vn -0.0000 0.7071 0.7071
vt 0.625000 0.500000
vt 0.625000 0.250000
vt 0.125000 0.750000
vt 0.375000 0.750000
s 1
usemtl Material.002
f 4/1/1 2/2/1 1/3/1 3/4/1
o Cube.001
v -0.500000 0.052836 0.205009
v -0.500000 0.194258 0.346430
v -0.500000 0.229613 0.028232
v -0.500000 0.371034 0.169654
v 0.500000 0.052836 0.205009
v 0.500000 0.194258 0.346430
v 0.500000 0.229613 0.028232
v 0.500000 0.371034 0.169654
vn -0.0000 0.7071 -0.7071
vn -0.0000 -0.7071 0.7071
vn -0.0000 0.7071 0.7071
vt 0.375000 0.250000
vt 0.625000 0.250000
vt 0.625000 0.500000
vt 0.375000 0.500000
vt 0.375000 0.750000
vt 0.625000 0.750000
vt 0.625000 1.000000
vt 0.375000 1.000000
vt 0.875000 0.500000
vt 0.875000 0.750000
s 0
usemtl Material.003
f 7/5/2 8/6/2 12/7/2 11/8/2
f 9/9/3 10/10/3 6/11/3 5/12/3
f 12/7/4 8/13/4 6/14/4 10/10/4
o Cube.002
v -0.500000 0.518135 -0.274098
v -0.500000 0.659556 -0.132677
v -0.500000 0.694911 -0.450875
v -0.500000 0.836333 -0.309453
v 0.500000 0.518135 -0.274098
v 0.500000 0.659556 -0.132677
v 0.500000 0.694911 -0.450875
v 0.500000 0.836333 -0.309453
vn -0.0000 0.7071 -0.7071
vn -0.0000 -0.7071 0.7071
vn -0.0000 0.7071 0.7071
vt 0.375000 0.250000
vt 0.625000 0.250000
vt 0.625000 0.500000
vt 0.375000 0.500000
vt 0.375000 0.750000
vt 0.625000 0.750000
vt 0.625000 1.000000
vt 0.375000 1.000000
vt 0.875000 0.500000
vt 0.875000 0.750000
s 0
usemtl Material.003
f 15/15/5 16/16/5 20/17/5 19/18/5
f 17/19/6 18/20/6 14/21/6 13/22/6
f 20/17/7 16/23/7 14/24/7 18/20/7
