# Blender 4.3.2
# www.blender.org
mtllib chip.mtl
o Plane
v -0.418350 -0.040825 -0.040825
v -0.418350 -0.040825 0.040825
v -0.418350 0.040825 0.040825
v -0.418350 0.040825 -0.040825
v -0.426805 -0.049280 0.000000
v -0.448252 0.000000 -0.000000
v -0.426805 0.000000 0.049280
v -0.426805 0.049280 0.000000
v -0.426805 0.000000 -0.049280
v 0.040825 -0.040825 0.418350
v 0.040825 0.040825 0.418350
v -0.040825 0.040825 0.418350
v -0.040825 -0.040825 0.418350
v 0.049280 0.000000 0.426805
v -0.000000 -0.000000 0.448252
v 0.000000 0.049280 0.426805
v -0.049280 0.000000 0.426805
v 0.000000 -0.049280 0.426805
v 0.418350 -0.040825 0.040825
v 0.418350 -0.040825 -0.040825
v 0.418350 0.040825 -0.040825
v 0.418350 0.040825 0.040825
v 0.426805 -0.049280 0.000000
v 0.448252 0.000000 0.000000
v 0.426805 0.000000 -0.049280
v 0.426805 0.049280 0.000000
v 0.426805 0.000000 0.049280
v -0.040825 -0.040825 -0.418350
v -0.040825 0.040825 -0.418350
v 0.040825 0.040825 -0.418350
v 0.040825 -0.040825 -0.418350
v -0.049280 0.000000 -0.426805
v 0.000000 -0.000000 -0.448252
v 0.000000 0.049280 -0.426805
v 0.049280 0.000000 -0.426805
v 0.000000 -0.049280 -0.426805
v 0.040825 0.418350 -0.040825
v -0.040825 0.418350 -0.040825
v -0.040825 0.418350 0.040825
v 0.040825 0.418350 0.040825
v 0.000000 0.426805 -0.049280
v 0.000000 0.448252 0.000000
v -0.049280 0.426805 0.000000
v 0.000000 0.426805 0.049280
v 0.049280 0.426805 0.000000
v 0.040825 -0.418350 -0.040825
v 0.040825 -0.418350 0.040825
v -0.040825 -0.418350 0.040825
v -0.040825 -0.418350 -0.040825
v 0.049280 -0.426805 0.000000
v -0.000000 -0.448252 -0.000000
v 0.000000 -0.426805 0.049280
v -0.049280 -0.426805 0.000000
v 0.000000 -0.426805 -0.049280
vn -0.7539 -0.4645 -0.4645
vn -0.7539 -0.4645 0.4645
vn -0.7539 0.4645 0.4645
vn -0.7539 0.4645 -0.4645
vn -0.8379 -0.5458 -0.0000
vn -1.0000 -0.0000 -0.0000
vn -0.8379 -0.0000 0.5458
vn -0.8379 0.5458 -0.0000
vn -0.8379 -0.0000 -0.5458
vn 0.4645 -0.4645 0.7539
vn 0.4645 0.4645 0.7539
vn -0.4645 0.4645 0.7539
vn -0.4645 -0.4645 0.7539
vn 0.5458 -0.0000 0.8379
vn -0.0000 -0.0000 1.0000
vn -0.0000 0.5458 0.8379
vn -0.5458 -0.0000 0.8379
vn -0.0000 -0.5458 0.8379
vn 0.7539 -0.4645 0.4645
vn 0.7539 -0.4645 -0.4645
vn 0.7539 0.4645 -0.4645
vn 0.7539 0.4645 0.4645
vn 0.8379 -0.5458 -0.0000
vn 1.0000 -0.0000 -0.0000
vn 0.8379 -0.0000 -0.5458
vn 0.8379 0.5458 -0.0000
vn 0.8379 -0.0000 0.5458
vn -0.4645 -0.4645 -0.7539
vn -0.4645 0.4645 -0.7539
vn 0.4645 0.4645 -0.7539
vn 0.4645 -0.4645 -0.7539
vn -0.5458 -0.0000 -0.8379
vn -0.0000 -0.0000 -1.0000
vn -0.0000 0.5458 -0.8379
vn 0.5458 -0.0000 -0.8379
vn -0.0000 -0.5458 -0.8379
vn 0.4645 0.7539 -0.4645
vn -0.4645 0.7539 -0.4645
vn -0.4645 0.7539 0.4645
vn 0.4645 0.7539 0.4645
vn -0.0000 0.8379 -0.5458
vn -0.0000 1.0000 -0.0000
vn -0.5458 0.8379 -0.0000
vn -0.0000 0.8379 0.5458
vn 0.5458 0.8379 -0.0000
vn 0.4645 -0.7539 -0.4645
vn 0.4645 -0.7539 0.4645
vn -0.4645 -0.7539 0.4645
vn -0.4645 -0.7539 -0.4645
vn 0.5458 -0.8379 -0.0000
vn -0.0000 -1.0000 -0.0000
vn -0.0000 -0.8379 0.5458
vn -0.5458 -0.8379 -0.0000
vn -0.0000 -0.8379 -0.5458
vt 0.000000 0.000000
s 1
f 2/1/2 48/1/48 13/1/13
f 31/1/31 20/1/20 46/1/46
f 29/1/29 4/1/4 38/1/38
f 30/1/30 37/1/37 21/1/21
f 3/1/3 12/1/12 39/1/39
f 22/1/22 40/1/40 11/1/11
f 19/1/19 10/1/10 47/1/47
f 1/1/1 5/1/5 6/1/6 9/1/9
f 2/1/2 7/1/7 6/1/6 5/1/5
f 3/1/3 8/1/8 6/1/6 7/1/7
f 4/1/4 9/1/9 6/1/6 8/1/8
f 10/1/10 14/1/14 15/1/15 18/1/18
f 11/1/11 16/1/16 15/1/15 14/1/14
f 12/1/12 17/1/17 15/1/15 16/1/16
f 13/1/13 18/1/18 15/1/15 17/1/17
f 19/1/19 23/1/23 24/1/24 27/1/27
f 20/1/20 25/1/25 24/1/24 23/1/23
f 21/1/21 26/1/26 24/1/24 25/1/25
f 22/1/22 27/1/27 24/1/24 26/1/26
f 28/1/28 32/1/32 33/1/33 36/1/36
f 29/1/29 34/1/34 33/1/33 32/1/32
f 30/1/30 35/1/35 33/1/33 34/1/34
f 31/1/31 36/1/36 33/1/33 35/1/35
f 37/1/37 41/1/41 42/1/42 45/1/45
f 38/1/38 43/1/43 42/1/42 41/1/41
f 39/1/39 44/1/44 42/1/42 43/1/43
f 40/1/40 45/1/45 42/1/42 44/1/44
f 46/1/46 50/1/50 51/1/51 54/1/54
f 47/1/47 52/1/52 51/1/51 50/1/50
f 48/1/48 53/1/53 51/1/51 52/1/52
f 49/1/49 54/1/54 51/1/51 53/1/53
f 28/1/28 1/1/1 9/1/9 32/1/32
f 32/1/32 9/1/9 4/1/4 29/1/29
f 10/1/10 19/1/19 27/1/27 14/1/14
f 14/1/14 27/1/27 22/1/22 11/1/11
f 12/1/12 3/1/3 7/1/7 17/1/17
f 17/1/17 7/1/7 2/1/2 13/1/13
f 30/1/30 21/1/21 25/1/25 35/1/35
f 35/1/35 25/1/25 20/1/20 31/1/31
f 37/1/37 30/1/30 34/1/34 41/1/41
f 41/1/41 34/1/34 29/1/29 38/1/38
f 11/1/11 40/1/40 44/1/44 16/1/16
f 16/1/16 44/1/44 39/1/39 12/1/12
f 38/1/38 4/1/4 8/1/8 43/1/43
f 43/1/43 8/1/8 3/1/3 39/1/39
f 21/1/21 37/1/37 45/1/45 26/1/26
f 26/1/26 45/1/45 40/1/40 22/1/22
f 49/1/49 28/1/28 36/1/36 54/1/54
f 54/1/54 36/1/36 31/1/31 46/1/46
f 13/1/13 48/1/48 52/1/52 18/1/18
f 18/1/18 52/1/52 47/1/47 10/1/10
f 48/1/48 2/1/2 5/1/5 53/1/53
f 53/1/53 5/1/5 1/1/1 49/1/49
f 19/1/19 47/1/47 50/1/50 23/1/23
f 23/1/23 50/1/50 46/1/46 20/1/20
f 28/1/28 49/1/49 1/1/1
