# Blender 4.3.2
# www.blender.org
mtllib cube.mtl
o Cube
v -0.400000 -0.500000 0.400000
v -0.400000 -0.400000 0.500000
v -0.500000 -0.400000 0.400000
v -0.400000 -0.470711 0.470711
v -0.457735 -0.457735 0.457735
v -0.470711 -0.400000 0.470711
v -0.470711 -0.470711 0.400000
v -0.400000 0.400000 0.500000
v -0.400000 0.500000 0.400000
v -0.500000 0.400000 0.400000
v -0.400000 0.470711 0.470711
v -0.457735 0.457735 0.457735
v -0.470711 0.470711 0.400000
v -0.470711 0.400000 0.470711
v -0.400000 -0.500000 -0.400000
v -0.500000 -0.400000 -0.400000
v -0.400000 -0.400000 -0.500000
v -0.470711 -0.470711 -0.400000
v -0.457735 -0.457735 -0.457735
v -0.470711 -0.400000 -0.470711
v -0.400000 -0.470711 -0.470711
v -0.400000 0.500000 -0.400000
v -0.400000 0.400000 -0.500000
v -0.500000 0.400000 -0.400000
v -0.400000 0.470711 -0.470711
v -0.457735 0.457735 -0.457735
v -0.470711 0.400000 -0.470711
v -0.470711 0.470711 -0.400000
v 0.400000 -0.500000 0.400000
v 0.500000 -0.400000 0.400000
v 0.400000 -0.400000 0.500000
v 0.470711 -0.470711 0.400000
v 0.457735 -0.457735 0.457735
v 0.470711 -0.400000 0.470711
v 0.400000 -0.470711 0.470711
v 0.400000 0.500000 0.400000
v 0.400000 0.400000 0.500000
v 0.500000 0.400000 0.400000
v 0.400000 0.470711 0.470711
v 0.457735 0.457735 0.457735
v 0.470711 0.400000 0.470711
v 0.470711 0.470711 0.400000
v 0.400000 -0.500000 -0.400000
v 0.400000 -0.400000 -0.500000
v 0.500000 -0.400000 -0.400000
v 0.400000 -0.470711 -0.470711
v 0.457735 -0.457735 -0.457735
v 0.470711 -0.400000 -0.470711
v 0.470711 -0.470711 -0.400000
v 0.400000 0.500000 -0.400000
v 0.500000 0.400000 -0.400000
v 0.400000 0.400000 -0.500000
v 0.470711 0.470711 -0.400000
v 0.457735 0.457735 -0.457735
v 0.470711 0.400000 -0.470711
v 0.400000 0.470711 -0.470711
vn -0.1794 -0.9673 0.1794
vn -0.1794 -0.1794 0.9673
vn -0.9673 -0.1794 0.1794
vn -0.1726 -0.6965 0.6965
vn -0.5774 -0.5774 0.5774
vn -0.6965 -0.1726 0.6965
vn -0.6965 -0.6965 0.1726
vn -0.1794 0.1794 0.9673
vn -0.1794 0.9673 0.1794
vn -0.9673 0.1794 0.1794
vn -0.1726 0.6965 0.6965
vn -0.5774 0.5774 0.5774
vn -0.6965 0.6965 0.1726
vn -0.6965 0.1726 0.6965
vn -0.1794 -0.9673 -0.1794
vn -0.9673 -0.1794 -0.1794
vn -0.1794 -0.1794 -0.9673
vn -0.6965 -0.6965 -0.1726
vn -0.5774 -0.5774 -0.5774
vn -0.6965 -0.1726 -0.6965
vn -0.1726 -0.6965 -0.6965
vn -0.1794 0.9673 -0.1794
vn -0.1794 0.1794 -0.9673
vn -0.9673 0.1794 -0.1794
vn -0.1726 0.6965 -0.6965
vn -0.5774 0.5774 -0.5774
vn -0.6965 0.1726 -0.6965
vn -0.6965 0.6965 -0.1726
vn 0.1794 -0.9673 0.1794
vn 0.9673 -0.1794 0.1794
vn 0.1794 -0.1794 0.9673
vn 0.6965 -0.6965 0.1726
vn 0.5774 -0.5774 0.5774
vn 0.6965 -0.1726 0.6965
vn 0.1726 -0.6965 0.6965
vn 0.1794 0.9673 0.1794
vn 0.1794 0.1794 0.9673
vn 0.9673 0.1794 0.1794
vn 0.1726 0.6965 0.6965
vn 0.5774 0.5774 0.5774
vn 0.6965 0.1726 0.6965
vn 0.6965 0.6965 0.1726
vn 0.1794 -0.9673 -0.1794
vn 0.1794 -0.1794 -0.9673
vn 0.9673 -0.1794 -0.1794
vn 0.1726 -0.6965 -0.6965
vn 0.5774 -0.5774 -0.5774
vn 0.6965 -0.1726 -0.6965
vn 0.6965 -0.6965 -0.1726
vn 0.1794 0.9673 -0.1794
vn 0.9673 0.1794 -0.1794
vn 0.1794 0.1794 -0.9673
vn 0.6965 0.6965 -0.1726
vn 0.5774 0.5774 -0.5774
vn 0.6965 0.1726 -0.6965
vn 0.1726 0.6965 -0.6965
vt 0.400000 0.775000
vt 0.600000 0.775000
vt 0.600000 0.975000
vt 0.400000 0.975000
vt 0.400000 0.525000
vt 0.600000 0.525000
vt 0.600000 0.725000
vt 0.400000 0.725000
vt 0.650000 0.525000
vt 0.850000 0.525000
vt 0.850000 0.725000
vt 0.650000 0.725000
vt 0.400000 0.025000
vt 0.600000 0.025000
vt 0.600000 0.225000
vt 0.400000 0.225000
vt 0.400000 0.275000
vt 0.600000 0.275000
vt 0.600000 0.475000
vt 0.400000 0.475000
vt 0.150000 0.725000
vt 0.150000 0.750000
vt 0.135566 0.750000
vt 0.125000 0.725000
vt 0.400000 1.000000
vt 0.385566 1.000000
vt 0.375000 0.975000
vt 0.375000 0.025000
vt 0.375000 0.010566
vt 0.400000 0.000000
vt 0.625000 0.975000
vt 0.625000 0.989434
vt 0.600000 1.000000
vt 0.875000 0.725000
vt 0.875000 0.739434
vt 0.850000 0.750000
vt 0.600000 0.000000
vt 0.614434 0.000000
vt 0.625000 0.025000
vt 0.150000 0.525000
vt 0.125000 0.525000
vt 0.125000 0.510566
vt 0.150000 0.500000
vt 0.400000 0.250000
vt 0.385566 0.250000
vt 0.375000 0.225000
vt 0.375000 0.275000
vt 0.375000 0.260566
vt 0.850000 0.500000
vt 0.864434 0.500000
vt 0.875000 0.525000
vt 0.600000 0.250000
vt 0.614434 0.250000
vt 0.625000 0.275000
vt 0.625000 0.225000
vt 0.625000 0.239434
vt 0.350000 0.725000
vt 0.375000 0.725000
vt 0.378522 0.750000
vt 0.350000 0.750000
vt 0.400000 0.750000
vt 0.375000 0.775000
vt 0.650000 0.750000
vt 0.625000 0.746478
vt 0.625000 0.725000
vt 0.600000 0.750000
vt 0.625000 0.775000
vt 0.350000 0.525000
vt 0.350000 0.500000
vt 0.375000 0.503522
vt 0.375000 0.525000
vt 0.400000 0.500000
vt 0.375000 0.475000
vt 0.625000 0.525000
vt 0.621478 0.500000
vt 0.650000 0.500000
vt 0.600000 0.500000
vt 0.625000 0.475000
s 1
f 31/1/31 37/2/37 8/3/8 2/4/2
f 45/5/45 51/6/51 38/7/38 30/8/30
f 50/9/50 22/10/22 9/11/9 36/12/36
f 3/13/3 10/14/10 24/15/24 16/16/16
f 17/17/17 23/18/23 52/19/52 44/20/44
f 1/21/1 4/22/4 5/23/5 7/24/7
f 2/4/2 6/25/6 5/26/5 4/27/4
f 3/13/3 7/28/7 5/29/5 6/30/6
f 8/3/8 11/31/11 12/32/12 14/33/14
f 9/11/9 13/34/13 12/35/12 11/36/11
f 10/14/10 14/37/14 12/38/12 13/39/13
f 15/40/15 18/41/18 19/42/19 21/43/21
f 16/16/16 20/44/20 19/45/19 18/46/18
f 17/17/17 21/47/21 19/48/19 20/44/20
f 22/10/22 25/49/25 26/50/26 28/51/28
f 23/18/23 27/52/27 26/53/26 25/54/25
f 24/15/24 28/55/28 26/56/26 27/52/27
f 29/57/29 32/58/32 33/59/33 35/60/35
f 30/8/30 34/61/34 33/59/33 32/58/32
f 31/1/31 35/62/35 33/59/33 34/61/34
f 36/12/36 39/63/39 40/64/40 42/65/42
f 37/2/37 41/66/41 40/64/40 39/67/39
f 38/7/38 42/65/42 40/64/40 41/66/41
f 43/68/43 46/69/46 47/70/47 49/71/49
f 44/20/44 48/72/48 47/70/47 46/73/46
f 45/5/45 49/71/49 47/70/47 48/72/48
f 50/9/50 53/74/53 54/75/54 56/76/56
f 51/6/51 55/77/55 54/75/54 53/74/53
f 52/19/52 56/78/56 54/75/54 55/77/55
f 15/40/15 1/21/1 7/24/7 18/41/18
f 18/46/18 7/28/7 3/13/3 16/16/16
f 2/4/2 8/3/8 14/33/14 6/25/6
f 6/30/6 14/37/14 10/14/10 3/13/3
f 9/11/9 22/10/22 28/51/28 13/34/13
f 13/39/13 28/55/28 24/15/24 10/14/10
f 23/18/23 17/17/17 20/44/20 27/52/27
f 27/52/27 20/44/20 16/16/16 24/15/24
f 43/68/43 15/40/15 21/43/21 46/69/46
f 46/73/46 21/47/21 17/17/17 44/20/44
f 22/10/22 50/9/50 56/76/56 25/49/25
f 25/54/25 56/78/56 52/19/52 23/18/23
f 51/6/51 45/5/45 48/72/48 55/77/55
f 55/77/55 48/72/48 44/20/44 52/19/52
f 29/57/29 43/68/43 49/71/49 32/58/32
f 32/58/32 49/71/49 45/5/45 30/8/30
f 50/9/50 36/12/36 42/65/42 53/74/53
f 53/74/53 42/65/42 38/7/38 51/6/51
f 37/2/37 31/1/31 34/61/34 41/66/41
f 41/66/41 34/61/34 30/8/30 38/7/38
f 1/21/1 29/57/29 35/60/35 4/22/4
f 4/27/4 35/62/35 31/1/31 2/4/2
f 36/12/36 9/11/9 11/36/11 39/63/39
f 39/67/39 11/31/11 8/3/8 37/2/37
f 15/40/15 43/68/43 29/57/29 1/21/1
