# Blender 4.3.2
# www.blender.org
mtllib dodecahedron.mtl
o Icosphere
v -0.827927 -1.170478 0.496782
v -0.683563 -1.260496 0.496493
v -0.727839 -1.170930 0.634275
v -0.767267 -1.233965 0.496638
v -0.761500 -1.224779 0.553386
v -0.709285 -1.234212 0.576258
v -0.792913 -1.182123 0.576432
v -0.828283 -1.170655 -0.496314
v -0.728003 -1.170694 -0.633410
v -0.683563 -1.260493 -0.496172
v -0.793180 -1.182130 -0.575858
v -0.761615 -1.224774 -0.553007
v -0.709351 -1.234141 -0.575772
v -0.767372 -1.234016 -0.496243
v 0.211127 -1.174666 0.937397
v 0.255711 -1.263984 0.799714
v 0.373253 -1.175173 0.884937
v 0.229835 -1.237875 0.879429
v 0.285595 -1.228858 0.891511
v 0.323638 -1.238137 0.849037
v 0.297829 -1.186360 0.928704
v -1.244510 -0.330403 0.803407
v -1.143909 -0.330446 0.940943
v -1.216081 -0.185702 0.888377
v -1.209121 -0.341784 0.883078
v -1.225623 -0.287759 0.895243
v -1.192780 -0.258037 0.932315
v -1.250957 -0.257993 0.852703
v 0.218246 -1.174898 -0.935477
v 0.379828 -1.174883 -0.882020
v 0.262669 -1.263987 -0.797255
v 0.304843 -1.186369 -0.926295
v 0.292769 -1.228854 -0.889042
v 0.330558 -1.238053 -0.846341
v 0.236949 -1.237944 -0.877163
v -1.148529 -0.330675 -0.935221
v -1.248385 -0.330446 -0.797145
v -1.220371 -0.185955 -0.881932
v -1.213434 -0.341920 -0.876996
v -1.230064 -0.287877 -0.888948
v -1.255179 -0.258126 -0.846285
v -1.197297 -0.258218 -0.926160
v 1.478646 -0.330575 -0.081194
v 1.505694 -0.185956 0.003818
v 1.478435 -0.330277 0.089142
v 1.512959 -0.258205 -0.045405
v 1.517586 -0.287828 0.003978
v 1.512859 -0.258042 0.053249
v 1.497006 -0.341838 0.004017
v 0.956041 -1.174884 0.088937
v 0.839325 -1.264382 0.003559
v 0.956770 -1.174994 -0.081192
v 0.906935 -1.238169 0.053030
v 0.935869 -1.228958 0.003882
v 0.907320 -1.238201 -0.045493
v 0.974930 -1.186388 0.003959
v 0.465239 -0.191703 1.431859
v 0.375378 -0.336486 1.431417
v 0.537068 -0.336555 1.378706
v 0.420320 -0.264168 1.453323
v 0.468506 -0.294116 1.442360
v 0.461958 -0.348022 1.422668
v 0.513950 -0.264239 1.422876
v -0.372543 0.329870 1.433505
v -0.534589 0.330404 1.381474
v -0.462075 0.185280 1.433612
v -0.459197 0.341533 1.425145
v -0.465472 0.287526 1.444669
v -0.511021 0.257819 1.425127
v -0.417261 0.257561 1.455357
v -0.534755 0.330506 -1.381146
v -0.372774 0.329766 -1.433167
v -0.462086 0.185532 -1.433276
v -0.459382 0.341586 -1.424810
v -0.465581 0.287593 -1.444442
v -0.417381 0.257636 -1.455159
v -0.511150 0.257960 -1.424793
v -1.478817 0.330303 -0.081196
v -1.506011 0.185703 0.003932
v -1.478435 0.330277 0.089142
v -1.513193 0.257980 -0.045309
v -1.517692 0.287710 0.004015
v -1.512944 0.257953 0.053305
v -1.497091 0.341702 0.004016
v -0.956770 1.174994 -0.081192
v -0.956576 1.174663 0.089147
v -0.839598 1.263983 0.003937
v -0.975138 1.186240 0.004021
v -0.936059 1.228813 0.004020
v -0.907321 1.237873 0.053311
v -0.907456 1.238084 -0.045304
v 0.537678 -0.336487 -1.378682
v 0.375886 -0.336554 -1.431076
v 0.465239 -0.191703 -1.431859
v 0.462491 -0.348022 -1.422495
v 0.468768 -0.294116 -1.442274
v 0.420551 -0.264239 -1.453223
v 0.514195 -0.264168 -1.422821
v -0.262940 1.264382 -0.796877
v -0.217974 1.175117 -0.934807
v -0.379457 1.174707 -0.881926
v -0.236942 1.238237 -0.876660
v -0.292686 1.228955 -0.888787
v -0.304526 1.186397 -0.926019
v -0.330568 1.238117 -0.846148
v 0.681558 1.263984 -0.490002
v 0.825924 1.174489 -0.490611
v 0.725807 1.175116 -0.628162
v 0.765263 1.237823 -0.490258
v 0.759436 1.228809 -0.547019
v 0.790868 1.186251 -0.570254
v 0.707198 1.238120 -0.569901
v 1.244510 0.330403 0.803407
v 1.143997 0.329870 0.940749
v 1.216492 0.185280 0.888209
v 1.209187 0.341533 0.883051
v 1.225740 0.287525 0.895158
v 1.193018 0.257561 0.932142
v 1.251103 0.257819 0.852576
v 1.244452 0.330505 -0.803044
v 1.216303 0.185532 -0.887931
v 1.143985 0.329766 -0.940341
v 1.251011 0.257960 -0.852230
v 1.225695 0.287593 -0.894911
v 1.192999 0.257635 -0.931913
v 1.209139 0.341586 -0.882673
v -0.260966 1.260491 0.803534
v -0.377760 1.170746 0.888388
v -0.216074 1.170650 0.941115
v -0.328656 1.234154 0.852773
v -0.290728 1.224774 0.895321
v -0.302668 1.182117 0.932407
v -0.234982 1.234012 0.883213
v 0.683425 1.260495 0.496684
v 0.727976 1.170654 0.634376
v 0.827790 1.170752 0.496682
v 0.709238 1.234016 0.576418
v 0.761455 1.224779 0.553447
v 0.792913 1.182122 0.576432
v 0.767130 1.234159 0.496731
vn -0.8099 -0.5755 0.1135
vn -0.1578 -0.9811 0.1121
vn -0.3574 -0.5768 0.7346
vn -0.5257 -0.8443 0.1037
vn -0.4937 -0.7931 0.3568
vn -0.2624 -0.8456 0.4650
vn -0.6415 -0.6093 0.4660
vn -0.8095 -0.5763 -0.1123
vn -0.3566 -0.5762 -0.7354
vn -0.1573 -0.9811 -0.1127
vn -0.6408 -0.6094 -0.4669
vn -0.4919 -0.7931 -0.3591
vn -0.2608 -0.8452 -0.4666
vn -0.5249 -0.8448 -0.1041
vn -0.1440 -0.5777 0.8035
vn 0.0561 -0.9819 0.1810
vn 0.5859 -0.5793 0.5666
vn -0.0654 -0.8465 0.5284
vn 0.1841 -0.7962 0.5764
vn 0.3587 -0.8476 0.3911
vn 0.2424 -0.6127 0.7522
vn -0.9043 -0.3849 0.1846
vn -0.4519 -0.3854 0.8045
vn -0.7778 0.2688 0.5681
vn -0.7281 -0.4329 0.5314
vn -0.7933 -0.1851 0.5800
vn -0.6543 -0.0533 0.7543
vn -0.9175 -0.0528 0.3943
vn -0.1417 -0.5789 -0.8030
vn 0.5901 -0.5779 -0.5638
vn 0.0576 -0.9819 -0.1806
vn 0.2470 -0.6128 -0.7506
vn 0.1897 -0.7962 -0.5745
vn 0.3630 -0.8468 -0.3888
vn -0.0625 -0.8470 -0.5279
vn -0.4542 -0.3850 -0.8034
vn -0.9049 -0.3853 -0.1807
vn -0.7794 0.2702 -0.5652
vn -0.7301 -0.4326 -0.5289
vn -0.7965 -0.1839 -0.5760
vn -0.9194 -0.0521 -0.3899
vn -0.6572 -0.0519 -0.7519
vn 0.8395 -0.3864 -0.3820
vn 0.9631 0.2693 0.0004
vn 0.8380 -0.3859 0.3857
vn 0.9735 -0.0532 -0.2225
vn 0.9827 -0.1852 0.0015
vn 0.9730 -0.0525 0.2247
vn 0.9007 -0.4343 0.0024
vn 0.7189 -0.5778 0.3863
vn 0.1895 -0.9819 0.0008
vn 0.7215 -0.5778 -0.3815
vn 0.4824 -0.8465 0.2252
vn 0.6071 -0.7947 0.0030
vn 0.4844 -0.8465 -0.2211
vn 0.7916 -0.6111 0.0033
vn 0.2982 0.2650 0.9170
vn -0.1065 -0.3871 0.9159
vn 0.6240 -0.3885 0.6780
vn 0.0889 -0.0572 0.9944
vn 0.3040 -0.1914 0.9333
vn 0.2778 -0.4370 0.8555
vn 0.5132 -0.0582 0.8563
vn 0.1084 0.3843 0.9168
vn -0.6229 0.3852 0.6809
vn -0.2967 -0.2683 0.9165
vn -0.2755 0.4330 0.8582
vn -0.3001 0.1863 0.9355
vn -0.5109 0.0539 0.8579
vn -0.0861 0.0531 0.9949
vn -0.6239 0.3859 -0.6796
vn 0.1086 0.3862 -0.9160
vn -0.2981 -0.2694 -0.9157
vn -0.2756 0.4346 -0.8574
vn -0.3002 0.1864 -0.9355
vn -0.0866 0.0528 -0.9948
vn -0.5125 0.0538 -0.8570
vn -0.8391 0.3868 -0.3825
vn -0.9633 -0.2684 0.0023
vn -0.8379 0.3859 0.3859
vn -0.9737 0.0545 -0.2212
vn -0.9825 0.1864 0.0023
vn -0.9727 0.0540 0.2258
vn -0.9006 0.4346 0.0021
vn -0.7212 0.5775 -0.3825
vn -0.7199 0.5770 0.3859
vn -0.1899 0.9818 0.0024
vn -0.7915 0.6112 0.0021
vn -0.6061 0.7954 0.0023
vn -0.4829 0.8461 0.2256
vn -0.4842 0.8466 -0.2212
vn 0.6254 -0.3876 -0.6773
vn -0.1069 -0.3886 -0.9152
vn 0.2977 0.2663 -0.9168
vn 0.2785 -0.4371 -0.8552
vn 0.3026 -0.1914 -0.9337
vn 0.0880 -0.0581 -0.9944
vn 0.5127 -0.0572 -0.8567
vn -0.0594 0.9819 -0.1799
vn 0.1428 0.5789 -0.8028
vn -0.5899 0.5764 -0.5655
vn 0.0620 0.8473 -0.5275
vn -0.1903 0.7947 -0.5764
vn -0.2457 0.6112 -0.7524
vn -0.3642 0.8457 -0.3900
vn 0.1549 0.9818 -0.1095
vn 0.8097 0.5760 -0.1123
vn 0.3561 0.5790 -0.7335
vn 0.5241 0.8456 -0.1015
vn 0.4916 0.7954 -0.3545
vn 0.6402 0.6113 -0.4652
vn 0.2597 0.8476 -0.4627
vn 0.9042 0.3853 0.1840
vn 0.4512 0.3843 0.8054
vn 0.7786 -0.2690 0.5670
vn 0.7274 0.4330 0.5324
vn 0.7927 0.1863 0.5805
vn 0.6546 0.0526 0.7541
vn 0.9177 0.0543 0.3935
vn 0.9042 0.3854 -0.1838
vn 0.7796 -0.2694 -0.5654
vn 0.4504 0.3863 -0.8049
vn 0.9183 0.0533 -0.3923
vn 0.7927 0.1864 -0.5804
vn 0.6546 0.0532 -0.7541
vn 0.7267 0.4345 -0.5321
vn -0.0583 0.9811 0.1846
vn -0.5881 0.5757 0.5681
vn 0.1435 0.5761 0.8047
vn -0.3620 0.8449 0.3937
vn -0.1881 0.7931 0.5793
vn -0.2443 0.6093 0.7544
vn 0.0634 0.8450 0.5311
vn 0.1557 0.9811 0.1151
vn 0.3569 0.5761 0.7354
vn 0.8101 0.5753 0.1134
vn 0.2609 0.8450 0.4669
vn 0.4927 0.7931 0.3581
vn 0.6410 0.6093 0.4668
vn 0.5247 0.8447 0.1056
vt 0.913551 0.107549
vt 0.953875 0.086130
vt 0.989306 0.143455
vt 0.982523 0.155202
vt 0.915163 0.153181
vt 0.822633 0.264989
vt 0.862964 0.243589
vt 0.898403 0.300915
vt 0.891613 0.312657
vt 0.824248 0.310658
vt 0.682467 0.086114
vt 0.722826 0.107564
vt 0.721236 0.153186
vt 0.653817 0.155203
vt 0.647059 0.143452
vt 0.909102 0.099843
vt 0.870346 0.075631
vt 0.902321 0.016239
vt 0.915873 0.016257
vt 0.947804 0.075616
vt 0.226585 0.086106
vt 0.262056 0.143482
vt 0.255261 0.155204
vt 0.187890 0.153177
vt 0.186270 0.107540
vt 0.737930 0.300931
vt 0.773408 0.243564
vt 0.813733 0.264987
vt 0.812118 0.310661
vt 0.744746 0.312662
vt 0.556152 0.300915
vt 0.591580 0.243578
vt 0.631900 0.264994
vt 0.630318 0.310673
vt 0.562910 0.312684
vt 0.465213 0.143471
vt 0.500678 0.086103
vt 0.540991 0.107548
vt 0.539384 0.153187
vt 0.472021 0.155208
vt 0.277178 0.265003
vt 0.317500 0.243567
vt 0.352979 0.300932
vt 0.346168 0.312666
vt 0.278797 0.310639
vt 0.856912 0.396746
vt 0.824955 0.456149
vt 0.811414 0.456146
vt 0.779452 0.396743
vt 0.818181 0.372556
vt 0.095373 0.265013
vt 0.135694 0.243585
vt 0.171120 0.300918
vt 0.164369 0.312671
vt 0.096954 0.310645
vt 0.904647 0.107560
vt 0.906532 0.103089
vt 0.909093 0.104973
vt 0.909443 0.108149
vt 0.912023 0.103688
vt 0.906180 0.103700
vt 0.908739 0.108149
vt 0.911671 0.103078
vt 0.864286 0.086118
vt 0.861262 0.082843
vt 0.863258 0.079386
vt 0.866741 0.080115
vt 0.724716 0.103091
vt 0.726990 0.104404
vt 0.727625 0.108146
vt 0.866388 0.080725
vt 0.864113 0.079412
vt 0.865999 0.074638
vt 0.951450 0.080111
vt 0.953737 0.078790
vt 0.956930 0.082861
vt 0.952169 0.074615
vt 0.954166 0.078072
vt 0.951803 0.080722
vt 0.181466 0.108159
vt 0.181466 0.105517
vt 0.184391 0.103082
vt 0.903026 0.153181
vt 0.909442 0.154073
vt 0.909442 0.156714
vt 0.904337 0.157461
vt 0.913834 0.157461
vt 0.909842 0.157461
vt 0.908739 0.154073
vt 0.860535 0.237575
vt 0.862823 0.236254
vt 0.866008 0.240298
vt 0.679436 0.082857
vt 0.681433 0.079399
vt 0.684916 0.080112
vt 0.542891 0.103087
vt 0.545178 0.104407
vt 0.545808 0.108156
vt 0.900732 0.014478
vt 0.902717 0.011040
vt 0.904024 0.010063
vt 0.727625 0.154065
vt 0.727625 0.156707
vt 0.722543 0.157461
vt 0.828874 0.143447
vt 0.824363 0.148041
vt 0.824072 0.147536
vt 0.826559 0.142952
vt 0.770363 0.240287
vt 0.772347 0.236849
vt 0.775820 0.237570
vt 0.460726 0.148041
vt 0.460436 0.147539
vt 0.462910 0.142974
vt 0.315082 0.237572
vt 0.317369 0.236251
vt 0.320544 0.240281
vt 0.264364 0.142974
vt 0.266349 0.146413
vt 0.266547 0.148044
vt 0.224172 0.080115
vt 0.226459 0.078794
vt 0.229639 0.082827
vt 0.914155 0.010064
vt 0.914737 0.010064
vt 0.917455 0.014486
vt 0.497635 0.082827
vt 0.499620 0.079389
vt 0.503108 0.080118
vt 0.133253 0.237579
vt 0.135541 0.236258
vt 0.138740 0.240306
vt 0.991643 0.142986
vt 0.993639 0.146444
vt 0.993817 0.148046
vt 0.186571 0.157461
vt 0.182579 0.157461
vt 0.181466 0.154090
vt 0.090558 0.265609
vt 0.090558 0.262968
vt 0.093477 0.260546
vt 0.900720 0.300422
vt 0.902717 0.303881
vt 0.902909 0.305503
vt 0.988752 0.156817
vt 0.988461 0.157322
vt 0.983258 0.157461
vt 0.733454 0.305502
vt 0.733165 0.305000
vt 0.735638 0.300433
vt 0.633802 0.260549
vt 0.636089 0.261869
vt 0.636716 0.265601
vt 0.653094 0.157461
vt 0.649123 0.157461
vt 0.647613 0.156819
vt 0.815612 0.260544
vt 0.817900 0.261865
vt 0.818534 0.265604
vt 0.835662 0.155194
vt 0.834909 0.157461
vt 0.830917 0.157461
vt 0.829430 0.156817
vt 0.817829 0.265604
vt 0.817830 0.262978
vt 0.820755 0.260542
vt 0.818535 0.311548
vt 0.818535 0.314175
vt 0.813435 0.314921
vt 0.822936 0.314921
vt 0.818943 0.314921
vt 0.817829 0.311548
vt 0.815260 0.368687
vt 0.817547 0.367367
vt 0.821108 0.368689
vt 0.545808 0.154090
vt 0.545808 0.156731
vt 0.540686 0.157461
vt 0.642546 0.148044
vt 0.642254 0.147539
vt 0.644721 0.142986
vt 0.588525 0.240320
vt 0.590522 0.236862
vt 0.594011 0.237574
vt 0.775106 0.397771
vt 0.773121 0.394332
vt 0.775474 0.391658
vt 0.636717 0.311562
vt 0.636717 0.314188
vt 0.631607 0.314921
vt 0.743994 0.314921
vt 0.740002 0.314921
vt 0.738522 0.314279
vt 0.813116 0.462319
vt 0.812534 0.462319
vt 0.809825 0.457908
vt 0.352387 0.314277
vt 0.352098 0.314779
vt 0.346914 0.314921
vt 0.562167 0.314921
vt 0.558198 0.314921
vt 0.556703 0.314277
vt 0.272376 0.265609
vt 0.272376 0.262968
vt 0.275311 0.260537
vt 0.173461 0.300445
vt 0.175457 0.303902
vt 0.175636 0.305502
vt 0.261482 0.156814
vt 0.261191 0.157318
vt 0.256013 0.157461
vt 0.355271 0.300431
vt 0.357257 0.303870
vt 0.357455 0.305500
vt 0.471251 0.157461
vt 0.467260 0.157461
vt 0.465793 0.156815
vt 0.551637 0.305501
vt 0.551347 0.304999
vt 0.553808 0.300453
vt 0.860891 0.391659
vt 0.863178 0.392979
vt 0.861264 0.397761
vt 0.897844 0.314276
vt 0.897553 0.314780
vt 0.892371 0.314921
vt 0.095655 0.314921
vt 0.091685 0.314921
vt 0.090557 0.311543
vt 0.826541 0.457903
vt 0.824556 0.461342
vt 0.823248 0.462319
vt 0.170572 0.314276
vt 0.170281 0.314780
vt 0.165101 0.314921
vt 0.277475 0.314921
vt 0.273483 0.314921
vt 0.272375 0.311543
vt 0.866564 0.080420
vt 0.906356 0.103394
vt 0.818182 0.311548
vt 0.818182 0.265604
vt 0.911847 0.103383
vt 0.951626 0.080416
vt 0.909091 0.108149
vt 0.909091 0.154073
s 1
f 3/1/3 15/2/15 58/3/58 66/4/66 23/5/23
f 80/6/80 24/7/24 65/8/65 128/9/128 86/10/86
f 29/11/29 9/12/9 36/13/36 73/14/73 93/15/93
f 2/16/2 10/17/10 31/18/31 51/19/51 16/20/16
f 50/21/50 45/22/45 115/23/115 59/24/59 17/25/17
f 71/26/71 38/27/38 78/28/78 85/29/85 101/30/101
f 122/31/122 94/32/94 72/33/72 100/34/100 108/35/108
f 43/36/43 52/37/52 30/38/30 92/39/92 121/40/121
f 113/41/113 44/42/44 120/43/120 107/44/107 136/45/136
f 127/46/127 134/47/134 106/48/106 99/49/99 87/50/87
f 64/51/64 57/52/57 114/53/114 135/54/135 129/55/129
f 1/56/1 4/57/4 5/58/5 7/59/7
f 2/16/2 6/60/6 5/58/5 4/61/4
f 3/1/3 7/62/7 5/58/5 6/63/6
f 8/64/8 11/65/11 12/66/12 14/67/14
f 9/12/9 13/68/13 12/69/12 11/70/11
f 10/17/10 14/71/14 12/72/12 13/73/13
f 15/2/15 18/74/18 19/75/19 21/76/21
f 16/20/16 20/77/20 19/78/19 18/79/18
f 17/25/17 21/80/21 19/81/19 20/82/20
f 22/83/22 25/84/25 26/85/26 28/86/28
f 23/5/23 27/87/27 26/88/26 25/89/25
f 24/7/24 28/90/28 26/91/26 27/92/27
f 29/11/29 32/93/32 33/94/33 35/95/35
f 30/38/30 34/96/34 33/97/33 32/98/32
f 31/18/31 35/99/35 33/100/33 34/101/34
f 36/13/36 39/102/39 40/103/40 42/104/42
f 37/105/37 41/106/41 40/107/40 39/108/39
f 38/27/38 42/109/42 40/110/40 41/111/41
f 43/36/43 46/112/46 47/113/47 49/114/49
f 44/42/44 48/115/48 47/116/47 46/117/46
f 45/22/45 49/118/49 47/119/47 48/120/48
f 50/21/50 53/121/53 54/122/54 56/123/56
f 51/19/51 55/124/55 54/125/54 53/126/53
f 52/37/52 56/127/56 54/128/54 55/129/55
f 57/52/57 60/130/60 61/131/61 63/132/63
f 58/3/58 62/133/62 61/134/61 60/135/60
f 59/24/59 63/136/63 61/137/61 62/138/62
f 64/51/64 67/139/67 68/140/68 70/141/70
f 65/8/65 69/142/69 68/143/68 67/144/67
f 66/4/66 70/145/70 68/146/68 69/147/69
f 71/26/71 74/148/74 75/149/75 77/150/77
f 72/33/72 76/151/76 75/152/75 74/153/74
f 73/14/73 77/154/77 75/155/75 76/156/76
f 78/28/78 81/157/81 82/158/82 84/159/84
f 79/160/79 83/161/83 82/162/82 81/163/81
f 80/6/80 84/164/84 82/165/82 83/166/83
f 85/29/85 88/167/88 89/168/89 91/169/91
f 86/10/86 90/170/90 89/171/89 88/172/88
f 87/50/87 91/173/91 89/174/89 90/175/90
f 92/39/92 95/176/95 96/177/96 98/178/98
f 93/15/93 97/179/97 96/180/96 95/181/95
f 94/32/94 98/182/98 96/183/96 97/184/97
f 99/49/99 102/185/102 103/186/103 105/187/105
f 100/34/100 104/188/104 103/189/103 102/190/102
f 101/30/101 105/191/105 103/192/103 104/193/104
f 106/48/106 109/194/109 110/195/110 112/196/112
f 107/44/107 111/197/111 110/198/110 109/199/109
f 108/35/108 112/200/112 110/201/110 111/202/111
f 113/41/113 116/203/116 117/204/117 119/205/119
f 114/53/114 118/206/118 117/207/117 116/208/116
f 115/23/115 119/209/119 117/210/117 118/211/118
f 120/43/120 123/212/123 124/213/124 126/214/126
f 121/40/121 125/215/125 124/216/124 123/217/123
f 122/31/122 126/218/126 124/219/124 125/220/125
f 127/46/127 130/221/130 131/222/131 133/223/133
f 128/9/128 132/224/132 131/225/131 130/226/130
f 129/55/129 133/227/133 131/228/131 132/229/132
f 134/47/134 137/230/137 138/231/138 140/232/140
f 135/54/135 139/233/139 138/234/138 137/235/137
f 136/45/136 140/236/140 138/237/138 139/238/139
f 1/56/1 8/64/8 14/239/14 4/240/4
f 4/240/4 14/239/14 10/17/10 2/16/2
f 45/22/45 50/21/50 56/123/56 49/118/49
f 49/114/49 56/127/56 52/37/52 43/36/43
f 80/6/80 86/10/86 88/241/88 84/242/84
f 84/242/84 88/241/88 85/29/85 78/28/78
f 99/49/99 106/48/106 112/196/112 102/185/102
f 102/190/102 112/200/112 108/35/108 100/34/100
f 129/55/129 135/54/135 137/235/137 133/227/133
f 133/223/133 137/230/137 134/47/134 127/46/127
f 15/2/15 3/1/3 6/243/6 18/244/18
f 18/244/18 6/243/6 2/16/2 16/20/16
f 9/12/9 29/11/29 35/95/35 13/68/13
f 13/73/13 35/99/35 31/18/31 10/17/10
f 30/38/30 52/37/52 55/129/55 34/96/34
f 34/101/34 55/124/55 51/19/51 31/18/31
f 50/21/50 17/25/17 20/82/20 53/121/53
f 53/126/53 20/77/20 16/20/16 51/19/51
f 44/42/44 113/41/113 119/205/119 48/115/48
f 48/120/48 119/209/119 115/23/115 45/22/45
f 114/53/114 57/52/57 63/132/63 118/206/118
f 118/211/118 63/136/63 59/24/59 115/23/115
f 58/3/58 15/2/15 21/76/21 62/133/62
f 62/138/62 21/80/21 17/25/17 59/24/59
f 22/83/22 1/56/1 7/245/7 25/246/25
f 25/246/25 7/245/7 3/1/3 23/5/23
f 57/52/57 64/51/64 70/141/70 60/130/60
f 60/135/60 70/145/70 66/4/66 58/3/58
f 65/8/65 24/7/24 27/92/27 69/142/69
f 69/147/69 27/87/27 23/5/23 66/4/66
f 36/13/36 9/12/9 11/70/11 39/102/39
f 39/108/39 11/65/11 8/64/8 37/105/37
f 24/7/24 80/6/80 83/166/83 28/90/28
f 28/86/28 83/161/83 79/160/79 22/83/22
f 78/28/78 38/27/38 41/111/41 81/157/81
f 81/163/81 41/106/41 37/105/37 79/160/79
f 92/39/92 30/38/30 32/98/32 95/176/95
f 95/181/95 32/93/32 29/11/29 93/15/93
f 38/27/38 71/26/71 77/150/77 42/109/42
f 42/104/42 77/154/77 73/14/73 36/13/36
f 72/33/72 94/32/94 97/184/97 76/151/76
f 76/156/76 97/179/97 93/15/93 73/14/73
f 120/43/120 44/42/44 46/117/46 123/212/123
f 123/217/123 46/112/46 43/36/43 121/40/121
f 94/32/94 122/31/122 125/220/125 98/182/98
f 98/178/98 125/215/125 121/40/121 92/39/92
f 128/9/128 65/8/65 67/144/67 132/224/132
f 132/229/132 67/139/67 64/51/64 129/55/129
f 113/41/113 136/45/136 139/238/139 116/203/116
f 116/208/116 139/233/139 135/54/135 114/53/114
f 127/46/127 87/50/87 90/175/90 130/221/130
f 130/226/130 90/170/90 86/10/86 128/9/128
f 100/34/100 72/33/72 74/153/74 104/188/104
f 104/193/104 74/148/74 71/26/71 101/30/101
f 87/50/87 99/49/99 105/187/105 91/173/91
f 91/169/91 105/191/105 101/30/101 85/29/85
f 107/44/107 120/43/120 126/214/126 111/197/111
f 111/202/111 126/218/126 122/31/122 108/35/108
f 106/48/106 134/47/134 140/232/140 109/194/109
f 109/199/109 140/236/140 136/45/136 107/44/107
f 8/64/8 1/56/1 22/83/22 79/160/79 37/105/37
